<?xml version="1.0" encoding="UTF-8" standalone="no"?> <!-- Created with Vectornator for iOS (http://vectornator.io/) --><!DOCTYPE svg PUBLIC "-//W3C//DTD SVG 1.1//EN" "http://www.w3.org/Graphics/SVG/1.1/DTD/svg11.dtd">
<svg height="100%" style="fill-rule:evenodd;clip-rule:evenodd;stroke-linecap:round;stroke-linejoin:round;" xmlns:xlink="http://www.w3.org/1999/xlink" xmlns="http://www.w3.org/2000/svg" xml:space="preserve" width="100%" xmlns:vectornator="http://vectornator.io" version="1.1" viewBox="0 0 1024 1024">
<metadata>
<vectornator:setting key="DisplayWhiteBackground" value="0"/>
<vectornator:setting key="RulersVisible" value="1"/>
<vectornator:setting key="Units" value="Pixels"/>
<vectornator:setting key="New" value="1"/>
<vectornator:setting key="DynamicGuides" value="0"/>
<vectornator:setting key="GuidesVisible" value="1"/>
<vectornator:setting key="SnapToPoints" value="0"/>
<vectornator:setting key="SnapToGrid" value="0"/>
<vectornator:setting key="SnapToGuides" value="1"/>
<vectornator:setting key="DimensionsVisible" value="1"/>
<vectornator:setting key="SnapToEdges" value="0"/>
</metadata>
<defs>
<linearGradient y1="24.8581" id="LinearGradient" x1="19" y2="49.0415" x2="19" gradientUnits="userSpaceOnUse" gradientTransform="matrix(19.5329 0 0 16.0116 -106.733 -93.8211)">
<stop stop-color="#6dc7ff" offset="0"/>
<stop stop-color="#e6abff" offset="1"/>
</linearGradient>
<linearGradient y1="15.4226" id="LinearGradient_2" x1="19.3817" y2="23.341" x2="19.3817" gradientUnits="userSpaceOnUse" gradientTransform="matrix(19.5329 0 0 16.0116 -106.733 -93.8211)">
<stop stop-color="#6dc7ff" offset="0"/>
<stop stop-color="#e6abff" offset="1"/>
</linearGradient>
<linearGradient y1="14.125" id="LinearGradient_3" x1="37.3855" y2="49.5245" x2="37.3855" gradientUnits="userSpaceOnUse" gradientTransform="matrix(19.5329 0 0 16.0116 -106.733 -93.8211)">
<stop stop-color="#6dc7ff" offset="0"/>
<stop stop-color="#e6abff" offset="1"/>
</linearGradient>
<linearGradient y1="6.5" id="LinearGradient_4" x1="32" y2="57.5003" x2="32" gradientUnits="userSpaceOnUse" gradientTransform="matrix(19.5329 0 0 16.0116 -106.733 -93.8211)">
<stop stop-color="#1a6dff" offset="0"/>
<stop stop-color="#c822ff" offset="1"/>
</linearGradient>
</defs>
<g id="Layer 1 Copy" vectornator:layerName="Layer 1 Copy">
<g opacity="1">
<path d="M175.432+885.645C172.799+885.645+170.429+886.146+168.322+887.146C166.215+888.147+164.451+889.516+163.029+891.254C161.607+892.992+160.527+895.02+159.79+897.337C159.053+899.655+158.684+902.13+158.684+904.763C158.684+905.606+158.763+906.844+158.921+908.476C159.079+910.109+159.553+911.715+160.343+913.295C161.133+914.875+162.423+916.271+164.214+917.482C166.005+918.694+168.533+919.299+171.798+919.299C174.747+919.299+177.223+918.72+179.224+917.561C181.225+916.403+182.805+914.902+183.964+913.058C185.123+911.215+185.939+909.161+186.413+906.896C186.887+904.632+187.124+902.393+187.124+900.181C187.124+895.968+186.176+892.492+184.28+889.753C182.384+887.015+179.435+885.645+175.432+885.645ZM226.94+936.679C221.252+944.474+214.168+950.399+205.689+954.454C197.21+958.51+188.125+960.537+178.434+960.537C170.007+960.537+162.081+959.089+154.655+956.192C147.229+953.296+140.725+949.267+135.142+944.105C129.559+938.944+125.162+932.756+121.949+925.54C118.736+918.325+117.13+910.451+117.13+901.919C117.13+893.493+118.71+885.698+121.87+878.535C125.03+871.373+129.349+865.158+134.826+859.891C140.303+854.625+146.702+850.49+154.023+847.488C161.344+844.486+169.165+842.985+177.486+842.985C184.438+842.985+191.258+844.118+197.947+846.382C204.636+848.647+210.613+851.991+215.88+856.415C221.147+860.839+225.386+866.29+228.599+872.768C231.812+879.246+233.418+886.646+233.418+894.967C233.418+900.55+232.76+905.395+231.443+909.503C230.126+913.611+228.441+917.087+226.387+919.931C224.333+922.775+222.016+925.093+219.435+926.883C216.854+928.674+214.274+930.043+211.693+930.991C209.112+931.939+206.637+932.598+204.267+932.966C201.897+933.335+199.922+933.519+198.342+933.519C193.918+933.519+190.758+932.624+188.862+930.833C186.966+929.043+185.965+927.094+185.86+924.987L185.544+924.987C183.437+927.094+180.804+929.043+177.644+930.833C174.484+932.624+170.376+933.519+165.32+933.519C161.949+933.519+158.868+932.861+156.077+931.544C153.286+930.228+150.889+928.411+148.888+926.093C146.887+923.776+145.333+920.985+144.227+917.719C143.121+914.454+142.568+910.873+142.568+906.975C142.568+902.341+143.305+897.89+144.78+893.624C146.255+889.358+148.335+885.566+151.021+882.248C153.707+878.93+156.999+876.297+160.896+874.348C164.793+872.4+169.217+871.425+174.168+871.425C178.381+871.425+181.884+872.11+184.675+873.479C187.466+874.849+189.652+877.166+191.232+880.431L191.548+880.431L192.812+873.321L207.664+873.321L201.818+904.447C201.502+905.922+201.186+907.397+200.87+908.871C200.554+910.346+200.396+911.873+200.396+913.453C200.396+915.349+200.686+916.798+201.265+917.798C201.844+918.799+202.977+919.299+204.662+919.299C206.347+919.299+208.006+918.852+209.639+917.956C211.272+917.061+212.72+915.639+213.984+913.69C215.248+911.742+216.275+909.293+217.065+906.343C217.855+903.394+218.25+899.865+218.25+895.757C218.25+889.437+217.223+883.881+215.169+879.088C213.115+874.296+210.271+870.267+206.637+867.001C203.003+863.736+198.658+861.287+193.602+859.654C188.546+858.022+183.016+857.205+177.012+857.205C170.481+857.205+164.53+858.311+159.158+860.523C153.786+862.735+149.178+865.843+145.333+869.845C141.488+873.848+138.513+878.588+136.406+884.065C134.299+889.543+133.246+895.494+133.246+901.919C133.246+908.871+134.405+915.086+136.722+920.563C139.039+926.041+142.278+930.675+146.439+934.467C150.6+938.259+155.524+941.182+161.212+943.236C166.9+945.29+173.062+946.317+179.698+946.317C185.702+946.317+191.206+945.475+196.209+943.789C201.212+942.104+205.663+939.734+209.56+936.679L226.94+936.679Z" opacity="1" fill="#f8f8f8"/>
<path d="M248.428+881.853L266.44+881.853L266.44+893.703L266.756+893.703C268.441+890.122+271.154+886.936+274.893+884.144C278.632+881.353+283.662+879.957+289.982+879.957C301.885+879.957+309.785+884.645+313.682+894.019C316.421+889.174+319.844+885.619+323.952+883.354C328.06+881.09+332.958+879.957+338.646+879.957C343.702+879.957+347.968+880.8+351.444+882.485C354.92+884.171+357.738+886.488+359.897+889.437C362.056+892.387+363.61+895.836+364.558+899.786C365.506+903.736+365.98+907.976+365.98+912.505L365.98+957.693L347.02+957.693L347.02+914.717C347.02+912.4+346.809+910.162+346.388+908.002C345.967+905.843+345.229+903.947+344.176+902.314C343.123+900.682+341.701+899.391+339.91+898.443C338.119+897.495+335.802+897.021+332.958+897.021C330.009+897.021+327.507+897.574+325.453+898.68C323.399+899.786+321.714+901.261+320.397+903.104C319.08+904.948+318.132+907.054+317.553+909.424C316.974+911.794+316.684+914.191+316.684+916.613L316.684+957.693L297.724+957.693L297.724+912.505C297.724+907.765+296.723+904+294.722+901.208C292.721+898.417+289.403+897.021+284.768+897.021C281.608+897.021+278.948+897.548+276.789+898.601C274.63+899.655+272.839+901.077+271.417+902.867C269.995+904.658+268.968+906.712+268.336+909.029C267.704+911.347+267.388+913.769+267.388+916.297L267.388+957.693L248.428+957.693L248.428+881.853Z" opacity="1" fill="#f8f8f8"/>
<path d="M446.718+946.317L446.402+946.317C443.663+950.952+439.977+954.323+435.342+956.429C430.707+958.536+425.704+959.589+420.332+959.589C414.433+959.589+409.193+958.562+404.611+956.508C400.029+954.454+396.105+951.637+392.84+948.055C389.575+944.474+387.099+940.261+385.414+935.415C383.729+930.57+382.886+925.356+382.886+919.773C382.886+914.191+383.781+908.977+385.572+904.131C387.363+899.286+389.864+895.073+393.077+891.491C396.29+887.91+400.161+885.092+404.69+883.038C409.219+880.984+414.17+879.957+419.542+879.957C423.123+879.957+426.283+880.326+429.022+881.063C431.761+881.801+434.183+882.749+436.29+883.907C438.397+885.066+440.187+886.304+441.662+887.62C443.137+888.937+444.348+890.227+445.296+891.491L445.77+891.491L445.77+838.245L464.73+838.245L464.73+957.693L446.718+957.693L446.718+946.317ZM401.846+919.773C401.846+922.723+402.346+925.567+403.347+928.305C404.348+931.044+405.822+933.467+407.771+935.573C409.72+937.68+412.063+939.365+414.802+940.629C417.541+941.893+420.648+942.525+424.124+942.525C427.6+942.525+430.707+941.893+433.446+940.629C436.185+939.365+438.528+937.68+440.477+935.573C442.426+933.467+443.9+931.044+444.901+928.305C445.902+925.567+446.402+922.723+446.402+919.773C446.402+916.824+445.902+913.98+444.901+911.241C443.9+908.503+442.426+906.08+440.477+903.973C438.528+901.867+436.185+900.181+433.446+898.917C430.707+897.653+427.6+897.021+424.124+897.021C420.648+897.021+417.541+897.653+414.802+898.917C412.063+900.181+409.72+901.867+407.771+903.973C405.822+906.08+404.348+908.503+403.347+911.241C402.346+913.98+401.846+916.824+401.846+919.773Z" opacity="1" fill="#f8f8f8"/>
<path d="M486.218+881.853L504.23+881.853L504.23+893.229L504.546+893.229C507.285+888.595+510.971+885.224+515.606+883.117C520.241+881.011+525.244+879.957+530.616+879.957C536.409+879.957+541.623+880.984+546.258+883.038C550.893+885.092+554.843+887.91+558.108+891.491C561.373+895.073+563.849+899.286+565.534+904.131C567.219+908.977+568.062+914.191+568.062+919.773C568.062+925.356+567.167+930.57+565.376+935.415C563.585+940.261+561.084+944.474+557.871+948.055C554.658+951.637+550.787+954.454+546.258+956.508C541.729+958.562+536.778+959.589+531.406+959.589C527.825+959.589+524.665+959.221+521.926+958.483C519.187+957.746+516.765+956.798+514.658+955.639C512.551+954.481+510.761+953.243+509.286+951.926C507.811+950.61+506.6+949.319+505.652+948.055L505.178+948.055L505.178+993.717L486.218+993.717L486.218+881.853ZM549.102+919.773C549.102+916.824+548.602+913.98+547.601+911.241C546.6+908.503+545.126+906.08+543.177+903.973C541.228+901.867+538.885+900.181+536.146+898.917C533.407+897.653+530.3+897.021+526.824+897.021C523.348+897.021+520.241+897.653+517.502+898.917C514.763+900.181+512.42+901.867+510.471+903.973C508.522+906.08+507.048+908.503+506.047+911.241C505.046+913.98+504.546+916.824+504.546+919.773C504.546+922.723+505.046+925.567+506.047+928.305C507.048+931.044+508.522+933.467+510.471+935.573C512.42+937.68+514.763+939.365+517.502+940.629C520.241+941.893+523.348+942.525+526.824+942.525C530.3+942.525+533.407+941.893+536.146+940.629C538.885+939.365+541.228+937.68+543.177+935.573C545.126+933.467+546.6+931.044+547.601+928.305C548.602+925.567+549.102+922.723+549.102+919.773Z" opacity="1" fill="#f8f8f8"/>
<path d="M585.758+881.853L604.718+881.853L604.718+893.861L605.034+893.861C607.141+889.437+610.143+886.014+614.04+883.591C617.937+881.169+622.414+879.957+627.47+879.957C628.629+879.957+629.761+880.063+630.867+880.273C631.973+880.484+633.105+880.747+634.264+881.063L634.264+899.391C632.684+898.97+631.13+898.628+629.603+898.364C628.076+898.101+626.575+897.969+625.1+897.969C620.676+897.969+617.121+898.786+614.435+900.418C611.749+902.051+609.695+903.921+608.273+906.027C606.851+908.134+605.903+910.241+605.429+912.347C604.955+914.454+604.718+916.034+604.718+917.087L604.718+957.693L585.758+957.693L585.758+881.853Z" opacity="1" fill="#f8f8f8"/>
<path d="M636.95+881.853L657.806+881.853L678.978+934.467L679.294+934.467L698.254+881.853L718.004+881.853L682.138+973.967C680.769+977.549+679.268+980.682+677.635+983.368C676.002+986.054+674.08+988.319+671.868+990.162C669.656+992.006+667.049+993.375+664.047+994.27C661.045+995.166+657.437+995.613+653.224+995.613C648.273+995.613+643.428+994.981+638.688+993.717L641.058+976.653C642.533+977.18+644.086+977.628+645.719+977.996C647.352+978.365+649.011+978.549+650.696+978.549C653.013+978.549+654.962+978.339+656.542+977.917C658.122+977.496+659.465+976.838+660.571+975.942C661.677+975.047+662.599+973.888+663.336+972.466C664.073+971.044+664.863+969.333+665.706+967.331L669.34+958.325L636.95+881.853Z" opacity="1" fill="#f8f8f8"/>
<path d="M725.43+919.773C725.43+913.769+726.51+908.318+728.669+903.42C730.828+898.522+733.751+894.335+737.438+890.859C741.125+887.383+745.496+884.697+750.552+882.801C755.608+880.905+760.98+879.957+766.668+879.957C772.356+879.957+777.728+880.905+782.784+882.801C787.84+884.697+792.211+887.383+795.898+890.859C799.585+894.335+802.508+898.522+804.667+903.42C806.826+908.318+807.906+913.769+807.906+919.773C807.906+925.777+806.826+931.228+804.667+936.126C802.508+941.024+799.585+945.211+795.898+948.687C792.211+952.163+787.84+954.849+782.784+956.745C777.728+958.641+772.356+959.589+766.668+959.589C760.98+959.589+755.608+958.641+750.552+956.745C745.496+954.849+741.125+952.163+737.438+948.687C733.751+945.211+730.828+941.024+728.669+936.126C726.51+931.228+725.43+925.777+725.43+919.773ZM744.39+919.773C744.39+922.723+744.89+925.567+745.891+928.305C746.892+931.044+748.366+933.467+750.315+935.573C752.264+937.68+754.607+939.365+757.346+940.629C760.085+941.893+763.192+942.525+766.668+942.525C770.144+942.525+773.251+941.893+775.99+940.629C778.729+939.365+781.072+937.68+783.021+935.573C784.97+933.467+786.444+931.044+787.445+928.305C788.446+925.567+788.946+922.723+788.946+919.773C788.946+916.824+788.446+913.98+787.445+911.241C786.444+908.503+784.97+906.08+783.021+903.973C781.072+901.867+778.729+900.181+775.99+898.917C773.251+897.653+770.144+897.021+766.668+897.021C763.192+897.021+760.085+897.653+757.346+898.917C754.607+900.181+752.264+901.867+750.315+903.973C748.366+906.08+746.892+908.503+745.891+911.241C744.89+913.98+744.39+916.824+744.39+919.773Z" opacity="1" fill="#f8f8f8"/>
<path d="M825.602+881.853L844.562+881.853L844.562+893.861L844.878+893.861C846.985+889.437+849.987+886.014+853.884+883.591C857.781+881.169+862.258+879.957+867.314+879.957C868.473+879.957+869.605+880.063+870.711+880.273C871.817+880.484+872.949+880.747+874.108+881.063L874.108+899.391C872.528+898.97+870.974+898.628+869.447+898.364C867.92+898.101+866.419+897.969+864.944+897.969C860.52+897.969+856.965+898.786+854.279+900.418C851.593+902.051+849.539+903.921+848.117+906.027C846.695+908.134+845.747+910.241+845.273+912.347C844.799+914.454+844.562+916.034+844.562+917.087L844.562+957.693L825.602+957.693L825.602+881.853Z" opacity="1" fill="#f8f8f8"/>
</g>
<path d="M322.99+674.736L322.99+322.48L205.792+322.48L205.792+674.736L322.99+674.736Z" fill-rule="evenodd" fill="url(#LinearGradient)" opacity="1"/>
<path d="M271.384+274.446C320.45+274.446+351+250.845+351+217.54C350.082+183.5+320.45+159.114+272.321+159.114C224.173+159.114+192.705+182.731+192.705+216.772C192.705+250.076+223.235+274.446+270.466+274.446L271.384+274.446L271.384+274.446Z" fill-rule="evenodd" fill="url(#LinearGradient_2)" opacity="1"/>
<path d="M419.599+674.736L557.384+674.736L557.384+481.171C557.384+470.796+559.767+460.436+563.498+453.023C573.655+432.288+600.161+410.832+639.031+410.832C689.953+410.832+713.666+442.663+713.666+489.305L713.666+674.736L830.863+674.736L830.863+476C830.863+369.41+770.605+323.921+677.999+323.921C602.095+323.921+577.913+354.504+559.396+386.527L557.384+386.527L557.384+322.48L419.599+322.48C421.455+354.504+416.181+674.736+416.181+674.736C416.181+674.736+419.599+674.736+419.599+674.736Z" fill-rule="evenodd" fill="url(#LinearGradient_3)" opacity="1"/>
<path d="M869.91+818.84L166.727+818.84C91.3493+818.84+29.9966+768.547+29.9966+706.759L29.9966+130.341C29.9966+68.5525+91.3493+18.2601+166.727+18.2601L869.91+18.2601C945.287+18.2601+1006.64+68.5525+1006.64+130.341L1006.64+706.759C1006.64+768.547+945.287+818.84+869.91+818.84ZM166.727+50.2833C112.875+50.2833+69.0623+86.1973+69.0623+130.341L69.0623+706.759C69.0623+750.903+112.875+786.817+166.727+786.817L869.91+786.817C923.762+786.817+967.574+750.903+967.574+706.759L967.574+130.341C967.574+86.1973+923.762+50.2833+869.91+50.2833L166.727+50.2833Z" opacity="1" fill="url(#LinearGradient_4)"/>
</g>
</svg>
