<?xml version="1.0" encoding="UTF-8" standalone="no"?> <!-- Created with Vectornator for iOS (http://vectornator.io/) --><!DOCTYPE svg PUBLIC "-//W3C//DTD SVG 1.1//EN" "http://www.w3.org/Graphics/SVG/1.1/DTD/svg11.dtd">
<svg height="100%" style="fill-rule:evenodd;clip-rule:evenodd;stroke-linecap:round;stroke-linejoin:round;" xmlns:xlink="http://www.w3.org/1999/xlink" xmlns="http://www.w3.org/2000/svg" xml:space="preserve" width="100%" xmlns:vectornator="http://vectornator.io" version="1.1" viewBox="0 0 1024 1024">
<metadata>
<vectornator:setting key="DisplayWhiteBackground" value="0"/>
<vectornator:setting key="RulersVisible" value="1"/>
<vectornator:setting key="Units" value="Pixels"/>
<vectornator:setting key="New" value="1"/>
<vectornator:setting key="DynamicGuides" value="0"/>
<vectornator:setting key="GuidesVisible" value="1"/>
<vectornator:setting key="SnapToPoints" value="0"/>
<vectornator:setting key="SnapToGrid" value="0"/>
<vectornator:setting key="SnapToGuides" value="1"/>
<vectornator:setting key="DimensionsVisible" value="1"/>
<vectornator:setting key="SnapToEdges" value="0"/>
</metadata>
<defs/>
<g id="Layer 1" vectornator:layerName="Layer 1">
<path d="M955.863+102.902C923.625+117.97+889.009+128.016+852.49+132.738C889.579+109.432+918.204+72.2627+931.613+28.3632C896.807+49.9614+858.291+65.7331+817.399+74.0709C784.685+37.4043+737.991+14.7012+686.257+14.7012C586.973+14.7012+506.424+98.9842+506.424+202.957C506.424+217.623+508.041+231.989+511.084+245.852C361.683+238.016+229.114+162.975+140.482+49.0573C124.885+76.8837+116.136+109.432+116.136+143.888C116.136+209.185+147.804+266.747+196.115+300.6C166.634+299.696+138.865+290.957+114.615+277.094C114.615+277.696+114.615+278.5+114.615+279.304C114.615+370.619+176.619+446.664+258.785+464.043C243.76+468.363+227.878+470.774+211.521+470.774C199.919+470.774+188.602+469.367+177.665+467.258C200.489+541.897+266.869+596.445+345.611+598.052C283.987+648.481+206.481+678.719+122.223+678.719C107.672+678.719+93.4075+677.814+79.3328+676.006C159.026+729.248+253.555+760.49+355.026+760.49C685.781+760.49+866.755+473.586+866.755+224.655C866.755+216.518+866.47+208.381+866.09+200.445C901.371+174.025+931.803+140.875+955.863+102.902" opacity="1" fill="#03a9f4"/>
<path d="M55.6135+869.519C53.493+869.524+51.5861+870.046+49.8927+871.085C48.1993+872.124+46.7826+873.543+45.6428+875.343C44.5029+877.142+43.6396+879.241+43.0528+881.638C42.466+884.035+42.1765+886.594+42.1844+889.316C42.1869+890.187+42.2542+891.466+42.3863+893.154C42.5184+894.841+42.9049+896.5+43.5458+898.132C44.1866+899.763+45.2298+901.203+46.6754+902.452C48.121+903.7+50.1584+904.321+52.7878+904.314C55.1628+904.307+57.1543+903.703+58.7624+902.501C60.3705+901.299+61.6383+899.744+62.5658+897.836C63.4933+895.929+64.1445+893.804+64.5194+891.462C64.8943+889.12+65.0785+886.806+65.0719+884.519C65.0593+880.164+64.2855+876.573+62.7506+873.746C61.2156+870.919+58.8366+869.51+55.6135+869.519ZM97.2427+922.161C92.6858+930.231+86.9994+936.37+80.1835+940.58C73.3677+944.79+66.0581+946.905+58.2547+946.926C51.4692+946.944+45.0822+945.464+39.0938+942.485C33.1054+939.507+27.8557+935.356+23.3449+930.033C18.834+924.71+15.2743+918.322+12.6657+910.871C10.0572+903.419+8.74013+895.284+8.71463+886.465C8.68943+877.754+9.93842+869.694+12.4616+862.283C14.9848+854.873+18.4438+848.44+22.8386+842.984C27.2335+837.528+32.3739+833.241+38.2599+830.122C44.1458+827.004+50.4392+825.435+57.1399+825.418C62.738+825.403+68.2334+826.559+73.6262+828.885C79.019+831.212+83.8425+834.656+88.0967+839.218C92.3509+843.78+95.7812+849.405+98.3875+856.095C100.994+862.784+102.31+870.429+102.334+879.031C102.351+884.802+101.835+889.811+100.787+894.061C99.7395+898.31+98.3928+901.906+96.7473+904.851C95.1019+907.795+93.2428+910.195+91.17+912.051C89.0973+913.908+87.0233+915.329+84.9481+916.314C82.8729+917.3+80.8816+917.985+78.9742+918.372C77.0669+918.758+75.4771+918.952+74.2048+918.956C70.6424+918.965+68.0951+918.047+66.563+916.2C65.0309+914.353+64.2193+912.341+64.1282+910.163L63.8738+910.164C62.1837+912.346+60.069+914.366+57.5298+916.224C54.9906+918.081+51.6853+919.015+47.6139+919.026C44.8997+919.033+42.4168+918.359+40.1651+917.004C37.9135+915.649+35.9784+913.776+34.3599+911.385C32.7414+908.994+31.482+906.112+30.5816+902.739C29.6813+899.366+29.2253+895.665+29.2136+891.637C29.1998+886.846+29.7802+882.244+30.9549+877.832C32.1296+873.419+33.7935+869.495+35.9464+866.059C38.0994+862.624+40.7421+859.895+43.8746+857.872C47.0071+855.85+50.5666+854.833+54.5531+854.822C57.9459+854.813+60.7682+855.514+63.02+856.923C65.2718+858.333+67.0387+860.723+68.3208+864.095L68.5752+864.095L69.5718+856.743L81.5314+856.711L76.9169+888.897C76.6669+890.422+76.4168+891.947+76.1668+893.472C75.9167+894.997+75.7941+896.577+75.7988+898.21C75.8045+900.17+76.042+901.666+76.5115+902.699C76.981+903.732+77.8943+904.247+79.2515+904.244C80.6086+904.24+81.9431+903.774+83.2552+902.845C84.5672+901.916+85.7292+900.443+86.7412+898.426C87.7532+896.409+88.5729+893.875+89.2002+890.825C89.8275+887.774+90.1351+884.126+90.1228+879.88C90.1039+873.347+89.2603+867.606+87.592+862.656C85.9237+857.706+83.6215+853.548+80.6855+850.18C77.7494+846.813+74.2433+844.29+70.1671+842.614C66.0909+840.937+61.6354+840.105+56.8007+840.118C51.5419+840.131+46.753+841.287+42.4338+843.585C38.1146+845.883+34.4131+849.105+31.3291+853.251C28.2452+857.396+25.8632+862.302+24.1832+867.969C22.5032+873.635+21.6728+879.789+21.692+886.43C21.7128+893.617+22.6644+900.038+24.5468+905.695C26.4292+911.352+29.0512+916.136+32.4129+920.046C35.7746+923.957+39.7487+926.968+44.335+929.079C48.9214+931.19+53.8864+932.239+59.23+932.225C64.0648+932.212+68.494+931.329+72.5179+929.576C76.5418+927.823+80.1183+925.364+83.2475+922.198L97.2427+922.161ZM156.817+888.849C155.029+886.459+153.158+884.558+151.203+883.148C149.248+881.738+147.252+881.035+145.217+881.041C142.418+881.048+139.917+881.708+137.716+883.02C135.514+884.333+133.632+886.08+132.069+888.262C130.506+890.443+129.326+892.951+128.529+895.784C127.731+898.617+127.337+901.558+127.345+904.606C127.354+907.655+127.766+910.594+128.58+913.422C129.394+916.251+130.588+918.752+132.164+920.926C133.739+923.099+135.631+924.836+137.841+926.137C140.05+927.438+142.554+928.084+145.353+928.077C147.728+928.071+149.931+927.439+151.963+926.181C153.995+924.924+155.729+923.095+157.164+920.696L167.383+934.715C165.862+936.679+164.107+938.371+162.117+939.792C160.128+941.212+158.117+942.361+156.084+943.237C154.051+944.114+152.102+944.745+150.237+945.131C148.372+945.517+146.761+945.712+145.404+945.716C140.824+945.728+136.495+944.759+132.418+942.81C128.341+940.861+124.813+938.094+121.834+934.509C118.855+930.923+116.488+926.602+114.735+921.543C112.982+916.485+112.096+910.853+112.078+904.647C112.06+898.44+112.913+892.804+114.637+887.736C116.361+882.669+118.703+878.334+121.661+874.733C124.619+871.132+128.131+868.347+132.197+866.376C136.262+864.405+140.585+863.414+145.166+863.402C149.067+863.392+152.993+864.334+156.943+866.229C160.892+868.124+164.357+871.136+167.338+875.266L156.817+888.849ZM214.707+932.793L214.325+932.794C212.133+937.264+209.343+940.511+205.956+942.534C202.569+944.557+198.84+945.574+194.769+945.585C191.97+945.592+189.233+945.11+186.558+944.137C183.883+943.164+181.504+941.7+179.421+939.746C177.337+937.792+175.655+935.346+174.374+932.41C173.093+929.473+172.447+926.045+172.436+922.126C172.423+917.879+173.007+914.257+174.185+911.26C175.364+908.263+176.947+905.754+178.935+903.735C180.922+901.715+183.229+900.103+185.855+898.898C188.481+897.694+191.213+896.788+194.053+896.182C196.893+895.576+199.754+895.187+202.638+895.016C205.521+894.845+208.235+894.756+210.78+894.749L214.597+894.739L214.591+892.616C214.576+887.717+213.251+884.045+210.615+881.602C207.978+879.16+204.624+877.944+200.553+877.954C197.33+877.963+194.321+878.706+191.526+880.183C188.731+881.66+186.32+883.654+184.291+886.163L176.246+875.896C179.626+871.422+183.582+868.2+188.114+866.228C192.646+864.256+197.33+863.264+202.164+863.251C206.49+863.24+210.139+863.856+213.111+865.1C216.084+866.345+218.548+867.944+220.505+869.899C222.461+871.853+223.973+874.109+225.041+876.665C226.109+879.221+226.879+881.804+227.353+884.416C227.827+887.028+228.11+889.559+228.202+892.009C228.294+894.458+228.343+896.608+228.348+898.459L228.479+943.536L214.738+943.572L214.707+932.793ZM213.746+908.461L210.565+908.469C208.445+908.475+206.07+908.59+203.441+908.815C200.812+909.039+198.333+909.563+196.003+910.386C193.673+911.209+191.704+912.411+190.097+913.994C188.49+915.578+187.691+917.784+187.699+920.615C187.704+922.466+188.027+924.017+188.666+925.267C189.306+926.518+190.136+927.577+191.157+928.446C192.177+929.314+193.324+929.937+194.597+930.315C195.871+930.692+197.143+930.88+198.416+930.876C203.675+930.862+207.55+929.246+210.043+926.027C212.536+922.809+213.775+918.423+213.759+912.87L213.746+908.461ZM244.664+865.099L259.169+865.06L259.203+876.819L259.457+876.819C261.648+872.022+264.607+868.53+268.333+866.342C272.059+864.155+276.084+863.056+280.41+863.044C285.075+863.032+289.277+864.082+293.015+866.195C296.753+868.309+299.942+871.213+302.582+874.908C305.223+878.603+307.228+882.953+308.6+887.958C309.972+892.963+310.666+898.35+310.682+904.121C310.699+909.892+309.994+915.283+308.566+920.295C307.139+925.308+305.137+929.668+302.561+933.377C299.984+937.086+296.876+940.007+293.235+942.14C289.594+944.272+285.61+945.344+281.284+945.356C278.4+945.364+275.855+944.989+273.647+944.233C271.44+943.477+269.486+942.502+267.786+941.309C266.086+940.115+264.641+938.84+263.449+937.482C262.258+936.124+261.279+934.793+260.512+933.488L260.13+933.489L260.266+980.689L244.999+980.729L244.664+865.099ZM295.415+904.161C295.406+901.113+294.995+898.174+294.181+895.345C293.367+892.517+292.172+890.015+290.597+887.842C289.021+885.669+287.129+883.931+284.92+882.631C282.711+881.33+280.207+880.683+277.408+880.691C274.609+880.698+272.108+881.358+269.907+882.67C267.705+883.983+265.823+885.73+264.26+887.912C262.697+890.093+261.517+892.601+260.72+895.434C259.922+898.267+259.528+901.208+259.536+904.256C259.545+907.305+259.957+910.244+260.771+913.072C261.585+915.901+262.779+918.402+264.355+920.576C265.93+922.749+267.822+924.486+270.032+925.787C272.241+927.088+274.745+927.734+277.544+927.727C280.343+927.72+282.843+927.06+285.045+925.747C287.246+924.435+289.128+922.688+290.691+920.506C292.254+918.324+293.434+915.817+294.232+912.984C295.029+910.151+295.424+907.21+295.415+904.161ZM357.452+886.522C354.468+881.195+350.474+878.538+345.47+878.551C343.434+878.556+341.442+879.215+339.495+880.526C337.548+881.838+336.579+883.964+336.588+886.904C336.594+889.299+337.405+891.039+339.02+892.124C340.635+893.208+342.673+894.128+345.135+894.884C347.597+895.639+350.25+896.422+353.094+897.231C355.938+898.04+358.592+899.285+361.056+900.966C363.521+902.647+365.563+904.956+367.183+907.891C368.804+910.827+369.621+914.853+369.636+919.971C369.649+924.652+368.876+928.601+367.316+931.818C365.756+935.034+363.728+937.625+361.232+939.591C358.735+941.558+355.919+942.981+352.783+943.86C349.647+944.739+346.51+945.183+343.372+945.192C338.622+945.204+334.252+944.345+330.26+942.613C326.268+940.882+322.697+937.734+319.545+933.169L329.688+920.893C331.647+923.719+333.753+926.027+336.006+927.817C338.259+929.608+340.997+930.499+344.22+930.49C345.323+930.487+346.467+930.321+347.654+929.991C348.84+929.662+349.942+929.114+350.957+928.349C351.973+927.585+352.797+926.63+353.43+925.485C354.063+924.34+354.377+923.005+354.373+921.481C354.365+918.759+353.553+916.747+351.938+915.444C350.322+914.142+348.284+913.086+345.822+912.276C343.359+911.466+340.707+910.711+337.863+910.01C335.02+909.31+332.366+908.174+329.901+906.602C327.437+905.029+325.395+902.83+323.775+900.003C322.155+897.177+321.338+893.259+321.324+888.251C321.311+883.895+322+880.11+323.39+876.894C324.781+873.679+326.618+871.033+328.902+868.959C331.186+866.884+333.811+865.353+336.777+864.365C339.743+863.377+342.752+862.879+345.806+862.871C349.877+862.86+353.909+863.748+357.9+865.534C361.892+867.32+365.124+870.387+367.596+874.736L357.452+886.522ZM419.673+932.251L419.291+932.252C417.099+936.722+414.309+939.968+410.922+941.991C407.535+944.015+403.806+945.032+399.735+945.042C396.936+945.05+394.199+944.567+391.524+943.594C388.849+942.621+386.47+941.158+384.386+939.203C382.303+937.249+380.62+934.804+379.34+931.867C378.059+928.931+377.413+925.503+377.401+921.583C377.389+917.337+377.972+913.715+379.151+910.718C380.33+907.72+381.913+905.212+383.901+903.192C385.888+901.173+388.195+899.561+390.821+898.356C393.447+897.151+396.179+896.246+399.019+895.64C401.859+895.033+404.72+894.644+407.604+894.474C410.487+894.303+413.201+894.214+415.746+894.207L419.563+894.197L419.556+892.074C419.542+887.174+418.217+883.503+415.58+881.06C412.944+878.617+409.59+877.401+405.519+877.412C402.296+877.42+399.287+878.163+396.492+879.641C393.697+881.118+391.285+883.111+389.257+885.621L381.212+875.353C384.592+870.88+388.548+867.658+393.08+865.686C397.612+863.714+402.296+862.722+407.13+862.709C411.456+862.697+415.105+863.314+418.077+864.558C421.05+865.802+423.514+867.402+425.471+869.356C427.427+871.311+428.939+873.566+430.007+876.122C431.074+878.678+431.845+881.262+432.319+883.874C432.793+886.486+433.076+889.017+433.168+891.466C433.26+893.916+433.309+896.066+433.314+897.917L433.445+942.993L419.704+943.03L419.673+932.251ZM418.712+907.918L415.531+907.927C413.41+907.932+411.036+908.047+408.407+908.272C405.778+908.497+403.299+909.021+400.969+909.843C398.638+910.666+396.67+911.869+395.063+913.452C393.456+915.035+392.657+917.242+392.665+920.073C392.67+921.924+392.993+923.475+393.632+924.725C394.272+925.975+395.102+927.035+396.123+927.903C397.143+928.772+398.29+929.395+399.563+929.772C400.837+930.15+402.109+930.337+403.382+930.334C408.64+930.32+412.516+928.704+415.009+925.485C417.502+922.266+418.74+917.881+418.724+912.328L418.712+907.918ZM449.885+864.555L465.152+864.515L465.379+942.909L450.112+942.949L449.885+864.555ZM447.645+837.94C447.636+834.782+448.54+832.031+450.357+829.685C452.173+827.339+454.481+826.163+457.28+826.155C460.079+826.148+462.436+827.258+464.351+829.485C466.266+831.712+467.228+834.513+467.238+837.888C467.248+841.263+466.302+844.07+464.4+846.307C462.498+848.544+460.147+849.666+457.348+849.673C454.549+849.681+452.235+848.516+450.404+846.18C448.574+843.844+447.654+841.097+447.645+837.94ZM524.509+887.876C522.721+885.486+520.849+883.585+518.894+882.175C516.94+880.765+514.944+880.062+512.909+880.068C510.11+880.075+507.609+880.735+505.408+882.047C503.206+883.36+501.324+885.107+499.761+887.288C498.198+889.47+497.018+891.978+496.22+894.811C495.423+897.644+495.028+900.585+495.037+903.633C495.046+906.682+495.457+909.621+496.271+912.449C497.085+915.278+498.28+917.779+499.856+919.953C501.431+922.126+503.323+923.863+505.532+925.164C507.741+926.465+510.246+927.111+513.045+927.104C515.42+927.098+517.623+926.466+519.655+925.208C521.687+923.951+523.421+922.122+524.856+919.723L535.075+933.742C533.553+935.706+531.798+937.398+529.809+938.819C527.82+940.239+525.809+941.388+523.776+942.264C521.743+943.141+519.794+943.772+517.929+944.158C516.064+944.544+514.453+944.739+513.096+944.742C508.515+944.755+504.187+943.786+500.11+941.837C496.033+939.888+492.505+937.121+489.526+933.536C486.547+929.95+484.18+925.629+482.427+920.57C480.673+915.512+479.788+909.88+479.77+903.674C479.752+897.467+480.605+891.831+482.329+886.763C484.053+881.695+486.394+877.361+489.353+873.76C492.311+870.159+495.823+867.374+499.889+865.403C503.954+863.432+508.277+862.441+512.858+862.429C516.759+862.419+520.685+863.361+524.634+865.256C528.584+867.151+532.049+870.163+535.03+874.293L524.509+887.876ZM544.289+864.306L559.556+864.265L559.783+942.659L544.516+942.699L544.289+864.306ZM542.049+837.69C542.04+834.533+542.944+831.781+544.76+829.435C546.577+827.089+548.885+825.913+551.684+825.905C554.483+825.898+556.84+827.008+558.755+829.235C560.67+831.462+561.632+834.263+561.642+837.638C561.652+841.014+560.706+843.82+558.804+846.057C556.902+848.294+554.551+849.416+551.752+849.424C548.953+849.431+546.639+848.267+544.808+845.931C542.978+843.594+542.058+840.848+542.049+837.69ZM577.114+864.219L591.618+864.18L591.654+876.756L591.909+876.755C593.339+872.832+595.535+869.424+598.495+866.53C601.456+863.637+605.48+862.184+610.569+862.17C614.641+862.16+618.1+863.021+620.946+864.756C623.793+866.491+626.111+868.771+627.9+871.597C629.689+874.423+630.971+877.686+631.745+881.386C632.519+885.086+632.912+888.95+632.924+892.979L633.067+942.465L617.799+942.505L617.685+902.819C617.678+900.641+617.587+898.219+617.409+895.552C617.232+892.884+616.779+890.381+616.052+888.042C615.324+885.703+614.194+883.746+612.663+882.172C611.132+880.597+609.051+879.813+606.422+879.82C603.877+879.827+601.737+880.377+600.002+881.47C598.266+882.564+596.828+884.037+595.689+885.891C594.549+887.745+593.728+889.871+593.226+892.267C592.724+894.664+592.477+897.169+592.484+899.782L592.608+942.572L577.341+942.613L577.114+864.219ZM641.778+962.857L641.754+954.691L705.368+954.523L705.392+962.689L641.778+962.857ZM729.057+874.759L729.311+874.759C730.489+871.489+732.58+868.516+735.583+865.841C738.587+863.165+742.463+861.821+747.213+861.809C751.285+861.798+754.744+862.66+757.59+864.394C760.437+866.129+762.755+868.409+764.544+871.236C766.333+874.062+767.615+877.325+768.389+881.025C769.163+884.725+769.556+888.589+769.568+892.617L769.711+942.103L754.443+942.144L754.329+902.457C754.322+900.279+754.23+897.857+754.053+895.19C753.876+892.523+753.423+890.02+752.695+887.681C751.968+885.342+750.838+883.385+749.307+881.81C747.776+880.235+745.695+879.451+743.066+879.458C740.521+879.465+738.381+880.015+736.645+881.109C734.91+882.202+733.472+883.676+732.332+885.53C731.193+887.384+730.372+889.509+729.87+891.906C729.368+894.303+729.121+896.807+729.128+899.421L729.252+942.211L713.985+942.251L713.627+818.781L728.895+818.74L729.057+874.759ZM842.74+941.91L828.236+941.949L828.2+929.373L827.945+929.374C826.515+933.297+824.319+936.705+821.359+939.599C818.399+942.492+814.374+943.945+809.285+943.959C805.213+943.969+801.755+943.135+798.908+941.455C796.062+939.774+793.744+937.494+791.954+934.613C790.165+931.733+788.883+928.443+788.109+924.743C787.335+921.043+786.942+917.179+786.93+913.15L786.787+863.664L802.055+863.623L802.17+903.31C802.176+905.488+802.268+907.91+802.445+910.577C802.622+913.245+803.075+915.748+803.803+918.087C804.53+920.426+805.639+922.383+807.128+923.957C808.617+925.532+810.718+926.316+813.432+926.309C815.977+926.302+818.117+925.752+819.853+924.659C821.588+923.565+823.026+922.092+824.166+920.238C825.305+918.384+826.126+916.258+826.628+913.862C827.13+911.465+827.377+908.96+827.37+906.347L827.246+863.557L842.514+863.516L842.74+941.91ZM859.817+863.471L875.084+863.43L875.12+875.843L875.375+875.842C877.058+871.264+879.465+867.719+882.596+865.207C885.727+862.694+889.328+861.433+893.4+861.422C894.333+861.419+895.245+861.526+896.136+861.741C897.027+861.957+897.94+862.226+898.874+862.551L898.928+881.496C897.655+881.064+896.403+880.713+895.172+880.444C893.941+880.175+892.732+880.042+891.545+880.045C887.983+880.055+885.122+880.906+882.964+882.6C880.806+884.293+879.158+886.23+878.019+888.411C876.88+890.591+876.123+892.771+875.748+894.95C875.373+897.128+875.186+898.762+875.19+899.851L875.311+941.824L860.043+941.864L859.817+863.471ZM902.232+880.017L902.184+863.358L914.78+863.325L914.714+840.624L929.981+840.583L930.047+863.285L946.841+863.24L946.89+879.899L930.095+879.943L930.195+914.241C930.206+918.16+930.787+921.262+931.939+923.545C933.091+925.829+935.363+926.966+938.756+926.957C940.113+926.954+941.597+926.759+943.207+926.374C944.818+925.988+946.088+925.359+947.018+924.485L947.066+940.981C945.457+941.965+943.487+942.651+941.156+943.038C938.825+943.425+936.768+943.621+934.987+943.626C930.916+943.637+927.585+943.074+924.995+941.938C922.404+940.801+920.364+939.064+918.872+936.727C917.381+934.39+916.355+931.481+915.794+927.998C915.232+924.515+914.945+920.487+914.932+915.914L914.828+879.984L902.232+880.017ZM991.434+884.844C988.45+879.517+984.456+876.86+979.452+876.873C977.416+876.878+975.425+877.537+973.478+878.849C971.531+880.16+970.561+882.286+970.57+885.226C970.577+887.621+971.387+889.361+973.002+890.446C974.617+891.53+976.655+892.45+979.117+893.206C981.579+893.962+984.232+894.744+987.076+895.553C989.92+896.362+992.574+897.607+995.039+899.288C997.503+900.97+999.546+903.278+1001.17+906.213C1002.79+909.149+1003.6+913.175+1003.62+918.293C1003.63+922.975+1002.86+926.924+1001.3+930.14C999.739+933.356+997.71+935.947+995.214+937.914C992.717+939.88+989.901+941.303+986.765+942.182C983.63+943.062+980.493+943.506+977.354+943.514C972.604+943.526+968.234+942.667+964.242+940.935C960.251+939.204+956.679+936.056+953.527+931.491L963.67+919.215C965.629+922.041+967.735+924.349+969.988+926.14C972.241+927.93+974.979+928.821+978.202+928.813C979.305+928.81+980.45+928.643+981.636+928.314C982.823+927.984+983.924+927.436+984.939+926.672C985.955+925.907+986.779+924.952+987.412+923.807C988.045+922.662+988.359+921.327+988.355+919.803C988.347+917.081+987.535+915.069+985.92+913.767C984.305+912.464+982.266+911.408+979.804+910.598C977.342+909.788+974.689+909.033+971.845+908.333C969.002+907.632+966.348+906.496+963.884+904.924C961.419+903.352+959.377+901.152+957.757+898.326C956.138+895.499+955.321+891.581+955.306+886.573C955.293+882.218+955.982+878.432+957.372+875.217C958.763+872.001+960.6+869.356+962.884+867.281C965.168+865.206+967.793+863.675+970.759+862.687C973.725+861.699+976.735+861.201+979.788+861.193C983.859+861.182+987.891+862.07+991.883+863.856C995.874+865.642+999.106+868.709+1001.58+873.058L991.434+884.844Z" opacity="1" fill="#f8f8f8"/>
</g>
</svg>
