<?xml version="1.0" encoding="UTF-8" standalone="no"?> <!-- Created with Vectornator for iOS (http://vectornator.io/) --><!DOCTYPE svg PUBLIC "-//W3C//DTD SVG 1.1//EN" "http://www.w3.org/Graphics/SVG/1.1/DTD/svg11.dtd">
<svg height="100%" style="fill-rule:evenodd;clip-rule:evenodd;stroke-linecap:round;stroke-linejoin:round;" xmlns:xlink="http://www.w3.org/1999/xlink" xmlns="http://www.w3.org/2000/svg" xml:space="preserve" width="100%" xmlns:vectornator="http://vectornator.io" version="1.1" viewBox="0 0 650 150">
<metadata>
<vectornator:setting key="DisplayWhiteBackground" value="0"/>
<vectornator:setting key="RulersVisible" value="1"/>
<vectornator:setting key="Units" value="Pixels"/>
<vectornator:setting key="New" value="1"/>
<vectornator:setting key="DynamicGuides" value="0"/>
<vectornator:setting key="GuidesVisible" value="1"/>
<vectornator:setting key="SnapToPoints" value="0"/>
<vectornator:setting key="SnapToGrid" value="0"/>
<vectornator:setting key="SnapToGuides" value="1"/>
<vectornator:setting key="DimensionsVisible" value="1"/>
<vectornator:setting key="SnapToEdges" value="0"/>
</metadata>
<defs/>
<g id="Layer 1" vectornator:layerName="Layer 1">
<path d="M209.779+26.9878C204.307+29.5167+198.432+31.2027+192.233+31.9951C198.529+28.0837+203.387+21.8456+205.663+14.4779C199.755+18.1027+193.218+20.7497+186.277+22.1491C180.725+15.9953+172.799+12.185+164.018+12.185C147.167+12.185+133.495+26.3303+133.495+43.78C133.495+46.2416+133.769+48.6525+134.286+50.9791C108.928+49.6641+86.4268+37.0699+71.383+17.951C68.7358+22.6211+67.2508+28.0837+67.2508+33.8666C67.2508+44.8253+72.6259+54.4859+80.8257+60.1677C75.8219+60.0159+71.1086+58.5491+66.9925+56.2225C66.9925+56.3237+66.9925+56.4585+66.9925+56.5934C66.9925+71.9189+77.5167+84.6817+91.4629+87.5984C88.9125+88.3233+86.2169+88.728+83.4406+88.728C81.4713+88.728+79.5505+88.4919+77.6943+88.1379C81.5682+100.665+92.8349+109.819+106.2+110.089C95.7403+118.553+82.5851+123.628+68.2838+123.628C65.8142+123.628+63.393+123.476+61.0041+123.172C74.5306+132.108+90.5751+137.351+107.798+137.351C163.938+137.351+194.655+89.2001+194.655+47.4217C194.655+46.0561+194.606+44.6905+194.542+43.3586C200.53+38.9245+205.695+33.3608+209.779+26.9878" opacity="1" fill="#03a9f4"/>
<g opacity="1">
<path stroke="#070306" stroke-width="1" d="M232.757+77.0552C232.757+75.8286+232.481+74.8166+231.929+74.0192C231.377+73.2219+230.519+72.8232+229.353+72.8232C227.943+72.8232+226.823+73.3752+225.995+74.4792C225.167+75.5832+224.753+76.9326+224.753+78.5272C224.753+79.0179+224.799+79.5086+224.891+79.9992C224.983+80.4899+225.144+80.9269+225.374+81.3102C225.604+81.6936+225.926+82.0079+226.34+82.2532C226.754+82.4986+227.283+82.6212+227.927+82.6212C228.878+82.6212+229.668+82.4526+230.296+82.1152C230.925+81.7779+231.423+81.3409+231.791+80.8042C232.159+80.2676+232.412+79.6696+232.55+79.0102C232.688+78.3509+232.757+77.6992+232.757+77.0552ZM237.035+78.2972C236.943+78.7266+236.851+79.2326+236.759+79.8152C236.667+80.3979+236.621+80.9039+236.621+81.3332C236.621+81.6706+236.706+81.9696+236.874+82.2302C237.043+82.4909+237.373+82.6212+237.863+82.6212C238.354+82.6212+238.837+82.4909+239.312+82.2302C239.788+81.9696+240.209+81.5556+240.577+80.9882C240.945+80.4209+241.244+79.7079+241.474+78.8492C241.704+77.9906+241.819+76.9632+241.819+75.7672C241.819+73.9272+241.52+72.3096+240.922+70.9142C240.324+69.5189+239.496+68.3459+238.438+67.3952C237.38+66.4446+236.115+65.7316+234.643+65.2562C233.171+64.7809+231.561+64.5432+229.813+64.5432C227.912+64.5432+226.179+64.8652+224.615+65.5092C223.051+66.1532+221.71+67.0579+220.59+68.2232C219.471+69.3886+218.605+70.7686+217.991+72.3632C217.378+73.9579+217.071+75.6906+217.071+77.5612C217.071+79.5852+217.409+81.3946+218.083+82.9892C218.758+84.5839+219.701+85.9332+220.912+87.0372C222.124+88.1412+223.557+88.9922+225.213+89.5902C226.869+90.1882+228.663+90.4872+230.595+90.4872C232.343+90.4872+233.946+90.2419+235.402+89.7512C236.859+89.2606+238.155+88.5706+239.289+87.6812L244.349+87.6812C242.693+89.9506+240.631+91.6756+238.162+92.8562C235.694+94.0369+233.049+94.6272+230.227+94.6272C227.774+94.6272+225.466+94.2056+223.304+93.3622C221.142+92.5189+219.249+91.3459+217.623+89.8432C215.998+88.3406+214.718+86.5389+213.782+84.4382C212.847+82.3376+212.379+80.0452+212.379+77.5612C212.379+75.1079+212.839+72.8386+213.759+70.7532C214.679+68.6679+215.937+66.8586+217.531+65.3252C219.126+63.7919+220.989+62.5882+223.12+61.7142C225.252+60.8402+227.529+60.4032+229.951+60.4032C231.975+60.4032+233.961+60.7329+235.908+61.3922C237.856+62.0516+239.596+63.0252+241.129+64.3132C242.663+65.6012+243.897+67.1882+244.832+69.0742C245.768+70.9602+246.235+73.1146+246.235+75.5372C246.235+77.1626+246.044+78.5732+245.66+79.7692C245.277+80.9652+244.786+81.9772+244.188+82.8052C243.59+83.6332+242.916+84.3079+242.164+84.8292C241.413+85.3506+240.662+85.7492+239.91+86.0252C239.159+86.3012+238.438+86.4929+237.748+86.6002C237.058+86.7076+236.483+86.7612+236.023+86.7612C234.735+86.7612+233.815+86.5006+233.263+85.9792C232.711+85.4579+232.42+84.8906+232.389+84.2772L232.297+84.2772C231.684+84.8906+230.917+85.4579+229.997+85.9792C229.077+86.5006+227.881+86.7612+226.409+86.7612C225.428+86.7612+224.531+86.5696+223.718+86.1862C222.906+85.8029+222.208+85.2739+221.625+84.5992C221.043+83.9246+220.59+83.1119+220.268+82.1612C219.946+81.2106+219.785+80.1679+219.785+79.0332C219.785+77.6839+220+76.3882+220.429+75.1462C220.859+73.9042+221.464+72.8002+222.246+71.8342C223.028+70.8682+223.987+70.1016+225.121+69.5342C226.256+68.9669+227.544+68.6832+228.985+68.6832C230.212+68.6832+231.232+68.8826+232.044+69.2812C232.857+69.6799+233.493+70.3546+233.953+71.3052L234.045+71.3052L234.413+69.2352L238.737+69.2352L237.035+78.2972Z" fill="#f8f8f8" stroke-linecap="round" opacity="1" stroke-linejoin="round"/>
<path stroke="#070306" stroke-width="1" d="M265.279+78.6652C264.942+78.1746+264.467+77.7682+263.853+77.4462C263.24+77.1242+262.581+76.9632+261.875+76.9632C260.127+76.9632+258.77+77.4846+257.804+78.5272C256.838+79.5699+256.355+80.9346+256.355+82.6212C256.355+84.3079+256.838+85.6726+257.804+86.7152C258.77+87.7579+260.127+88.2792+261.875+88.2792C262.642+88.2792+263.301+88.1106+263.853+87.7732C264.405+87.4359+264.881+87.0372+265.279+86.5772L269.833+91.3612C268.76+92.4652+267.495+93.2396+266.038+93.6842C264.582+94.1289+263.194+94.3512+261.875+94.3512C260.158+94.3512+258.54+94.0752+257.022+93.5232C255.504+92.9712+254.186+92.1816+253.066+91.1542C251.947+90.1269+251.065+88.8926+250.421+87.4512C249.777+86.0099+249.455+84.3999+249.455+82.6212C249.455+80.8426+249.777+79.2326+250.421+77.7912C251.065+76.3499+251.947+75.1156+253.066+74.0882C254.186+73.0609+255.504+72.2712+257.022+71.7192C258.54+71.1672+260.158+70.8912+261.875+70.8912C263.194+70.8912+264.582+71.1136+266.038+71.5582C267.495+72.0029+268.76+72.7772+269.833+73.8812L265.279+78.6652Z" fill="#f8f8f8" stroke-linecap="round" opacity="1" stroke-linejoin="round"/>
<path stroke="#070306" stroke-width="1" d="M286.347+90.9932L286.255+90.9932C285.489+92.1892+284.469+93.0479+283.196+93.5692C281.924+94.0906+280.582+94.3512+279.171+94.3512C278.129+94.3512+277.124+94.2056+276.158+93.9142C275.192+93.6229+274.341+93.1859+273.605+92.6032C272.869+92.0206+272.287+91.2999+271.857+90.4412C271.428+89.5826+271.213+88.5859+271.213+87.4512C271.213+86.1632+271.451+85.0746+271.926+84.1852C272.402+83.2959+273.046+82.5599+273.858+81.9772C274.671+81.3946+275.599+80.9422+276.641+80.6202C277.684+80.2982+278.765+80.0606+279.884+79.9072C281.004+79.7539+282.123+79.6619+283.242+79.6312C284.362+79.6006+285.397+79.5852+286.347+79.5852C286.347+78.3586+285.91+77.3849+285.036+76.6642C284.162+75.9436+283.127+75.5832+281.931+75.5832C280.797+75.5832+279.762+75.8209+278.826+76.2962C277.891+76.7716+277.055+77.4232+276.319+78.2512L272.639+74.4792C273.927+73.2832+275.43+72.3862+277.147+71.7882C278.865+71.1902+280.643+70.8912+282.483+70.8912C284.507+70.8912+286.171+71.1442+287.474+71.6502C288.778+72.1562+289.82+72.8999+290.602+73.8812C291.384+74.8626+291.929+76.0662+292.235+77.4922C292.542+78.9182+292.695+80.5666+292.695+82.4372L292.695+93.7992L286.347+93.7992L286.347+90.9932ZM284.645+84.0012C284.124+84.0012+283.472+84.0242+282.69+84.0702C281.908+84.1162+281.157+84.2466+280.436+84.4612C279.716+84.6759+279.102+84.9979+278.596+85.4272C278.09+85.8566+277.837+86.4546+277.837+87.2212C277.837+88.0492+278.19+88.6626+278.895+89.0612C279.601+89.4599+280.337+89.6592+281.103+89.6592C281.778+89.6592+282.43+89.5672+283.058+89.3832C283.687+89.1992+284.247+88.9386+284.737+88.6012C285.228+88.2639+285.619+87.8346+285.91+87.3132C286.202+86.7919+286.347+86.1786+286.347+85.4732L286.347+84.0012L284.645+84.0012Z" fill="#f8f8f8" stroke-linecap="round" opacity="1" stroke-linejoin="round"/>
<path stroke="#070306" stroke-width="1" d="M297.663+71.4432L304.011+71.4432L304.011+74.3872L304.103+74.3872C304.379+73.9886+304.74+73.5822+305.184+73.1682C305.629+72.7542+306.15+72.3786+306.748+72.0412C307.346+71.7039+307.998+71.4279+308.703+71.2132C309.409+70.9986+310.16+70.8912+310.957+70.8912C312.613+70.8912+314.116+71.1749+315.465+71.7422C316.815+72.3096+317.972+73.1069+318.938+74.1342C319.904+75.1616+320.648+76.3806+321.169+77.7912C321.691+79.2019+321.951+80.7506+321.951+82.4372C321.951+84.0012+321.714+85.4962+321.238+86.9222C320.763+88.3482+320.088+89.6132+319.214+90.7172C318.34+91.8212+317.275+92.7029+316.017+93.3622C314.76+94.0216+313.334+94.3512+311.739+94.3512C310.298+94.3512+308.956+94.1289+307.714+93.6842C306.472+93.2396+305.453+92.4806+304.655+91.4072L304.563+91.4072L304.563+104.287L297.663+104.287L297.663+71.4432ZM304.011+82.6212C304.011+84.3079+304.494+85.6726+305.46+86.7152C306.426+87.7579+307.783+88.2792+309.531+88.2792C311.279+88.2792+312.636+87.7579+313.602+86.7152C314.568+85.6726+315.051+84.3079+315.051+82.6212C315.051+80.9346+314.568+79.5699+313.602+78.5272C312.636+77.4846+311.279+76.9632+309.531+76.9632C307.783+76.9632+306.426+77.4846+305.46+78.5272C304.494+79.5699+304.011+80.9346+304.011+82.6212Z" fill="#f8f8f8" stroke-linecap="round" opacity="1" stroke-linejoin="round"/>
<path stroke="#070306" stroke-width="1" d="M338.649+78.0212C337.637+76.7639+336.303+76.1352+334.647+76.1352C334.065+76.1352+333.497+76.2732+332.945+76.5492C332.393+76.8252+332.117+77.3006+332.117+77.9752C332.117+78.5272+332.401+78.9336+332.968+79.1942C333.536+79.4549+334.256+79.6849+335.13+79.8842C336.004+80.0836+336.94+80.2982+337.936+80.5282C338.933+80.7582+339.868+81.1186+340.742+81.6092C341.616+82.0999+342.337+82.7669+342.904+83.6102C343.472+84.4536+343.755+85.5806+343.755+86.9912C343.755+88.4326+343.441+89.6209+342.812+90.5562C342.184+91.4916+341.379+92.2429+340.397+92.8102C339.416+93.3776+338.312+93.7762+337.085+94.0062C335.859+94.2362+334.647+94.3512+333.451+94.3512C331.887+94.3512+330.308+94.1289+328.713+93.6842C327.119+93.2396+325.769+92.4499+324.665+91.3152L328.851+86.6692C329.495+87.4666+330.208+88.0722+330.99+88.4862C331.772+88.9002+332.685+89.1072+333.727+89.1072C334.525+89.1072+335.245+88.9922+335.889+88.7622C336.533+88.5322+336.855+88.1106+336.855+87.4972C336.855+86.9146+336.572+86.4776+336.004+86.1862C335.437+85.8949+334.716+85.6496+333.842+85.4502C332.968+85.2509+332.033+85.0362+331.036+84.8062C330.04+84.5762+329.104+84.2312+328.23+83.7712C327.356+83.3112+326.636+82.6596+326.068+81.8162C325.501+80.9729+325.217+79.8459+325.217+78.4352C325.217+77.1166+325.486+75.9819+326.022+75.0312C326.559+74.0806+327.264+73.2986+328.138+72.6852C329.012+72.0719+330.017+71.6196+331.151+71.3282C332.286+71.0369+333.436+70.8912+334.601+70.8912C336.073+70.8912+337.561+71.1059+339.063+71.5352C340.566+71.9646+341.839+72.7312+342.881+73.8352L338.649+78.0212Z" fill="#f8f8f8" stroke-linecap="round" opacity="1" stroke-linejoin="round"/>
<path stroke="#070306" stroke-width="1" d="M361.327+90.9932L361.235+90.9932C360.469+92.1892+359.449+93.0479+358.176+93.5692C356.904+94.0906+355.562+94.3512+354.151+94.3512C353.109+94.3512+352.104+94.2056+351.138+93.9142C350.172+93.6229+349.321+93.1859+348.585+92.6032C347.849+92.0206+347.267+91.2999+346.837+90.4412C346.408+89.5826+346.193+88.5859+346.193+87.4512C346.193+86.1632+346.431+85.0746+346.906+84.1852C347.382+83.2959+348.026+82.5599+348.838+81.9772C349.651+81.3946+350.579+80.9422+351.621+80.6202C352.664+80.2982+353.745+80.0606+354.864+79.9072C355.984+79.7539+357.103+79.6619+358.222+79.6312C359.342+79.6006+360.377+79.5852+361.327+79.5852C361.327+78.3586+360.89+77.3849+360.016+76.6642C359.142+75.9436+358.107+75.5832+356.911+75.5832C355.777+75.5832+354.742+75.8209+353.806+76.2962C352.871+76.7716+352.035+77.4232+351.299+78.2512L347.619+74.4792C348.907+73.2832+350.41+72.3862+352.127+71.7882C353.845+71.1902+355.623+70.8912+357.463+70.8912C359.487+70.8912+361.151+71.1442+362.454+71.6502C363.758+72.1562+364.8+72.8999+365.582+73.8812C366.364+74.8626+366.909+76.0662+367.215+77.4922C367.522+78.9182+367.675+80.5666+367.675+82.4372L367.675+93.7992L361.327+93.7992L361.327+90.9932ZM359.625+84.0012C359.104+84.0012+358.452+84.0242+357.67+84.0702C356.888+84.1162+356.137+84.2466+355.416+84.4612C354.696+84.6759+354.082+84.9979+353.576+85.4272C353.07+85.8566+352.817+86.4546+352.817+87.2212C352.817+88.0492+353.17+88.6626+353.875+89.0612C354.581+89.4599+355.317+89.6592+356.083+89.6592C356.758+89.6592+357.41+89.5672+358.038+89.3832C358.667+89.1992+359.227+88.9386+359.717+88.6012C360.208+88.2639+360.599+87.8346+360.89+87.3132C361.182+86.7919+361.327+86.1786+361.327+85.4732L361.327+84.0012L359.625+84.0012Z" fill="#f8f8f8" stroke-linecap="round" opacity="1" stroke-linejoin="round"/>
<path stroke="#070306" stroke-width="1" d="M372.091+71.4432L378.991+71.4432L378.991+93.7992L372.091+93.7992L372.091+71.4432ZM371.539+64.4052C371.539+63.3012+371.93+62.3582+372.712+61.5762C373.494+60.7942+374.437+60.4032+375.541+60.4032C376.645+60.4032+377.588+60.7942+378.37+61.5762C379.152+62.3582+379.543+63.3012+379.543+64.4052C379.543+65.5092+379.152+66.4522+378.37+67.2342C377.588+68.0162+376.645+68.4072+375.541+68.4072C374.437+68.4072+373.494+68.0162+372.712+67.2342C371.93+66.4522+371.539+65.5092+371.539+64.4052Z" fill="#f8f8f8" stroke-linecap="round" opacity="1" stroke-linejoin="round"/>
<path stroke="#070306" stroke-width="1" d="M399.093+78.6652C398.756+78.1746+398.281+77.7682+397.667+77.4462C397.054+77.1242+396.395+76.9632+395.689+76.9632C393.941+76.9632+392.584+77.4846+391.618+78.5272C390.652+79.5699+390.169+80.9346+390.169+82.6212C390.169+84.3079+390.652+85.6726+391.618+86.7152C392.584+87.7579+393.941+88.2792+395.689+88.2792C396.456+88.2792+397.115+88.1106+397.667+87.7732C398.219+87.4359+398.695+87.0372+399.093+86.5772L403.647+91.3612C402.574+92.4652+401.309+93.2396+399.852+93.6842C398.396+94.1289+397.008+94.3512+395.689+94.3512C393.972+94.3512+392.354+94.0752+390.836+93.5232C389.318+92.9712+388+92.1816+386.88+91.1542C385.761+90.1269+384.879+88.8926+384.235+87.4512C383.591+86.0099+383.269+84.3999+383.269+82.6212C383.269+80.8426+383.591+79.2326+384.235+77.7912C384.879+76.3499+385.761+75.1156+386.88+74.0882C388+73.0609+389.318+72.2712+390.836+71.7192C392.354+71.1672+393.972+70.8912+395.689+70.8912C397.008+70.8912+398.396+71.1136+399.852+71.5582C401.309+72.0029+402.574+72.7772+403.647+73.8812L399.093+78.6652Z" fill="#f8f8f8" stroke-linecap="round" opacity="1" stroke-linejoin="round"/>
<path stroke="#070306" stroke-width="1" d="M406.223+71.4432L413.123+71.4432L413.123+93.7992L406.223+93.7992L406.223+71.4432ZM405.671+64.4052C405.671+63.3012+406.062+62.3582+406.844+61.5762C407.626+60.7942+408.569+60.4032+409.673+60.4032C410.777+60.4032+411.72+60.7942+412.502+61.5762C413.284+62.3582+413.675+63.3012+413.675+64.4052C413.675+65.5092+413.284+66.4522+412.502+67.2342C411.72+68.0162+410.777+68.4072+409.673+68.4072C408.569+68.4072+407.626+68.0162+406.844+67.2342C406.062+66.4522+405.671+65.5092+405.671+64.4052Z" fill="#f8f8f8" stroke-linecap="round" opacity="1" stroke-linejoin="round"/>
<path stroke="#070306" stroke-width="1" d="M418.091+71.4432L424.715+71.4432L424.715+74.4792L424.807+74.4792C425.022+74.0499+425.329+73.6206+425.727+73.1912C426.126+72.7619+426.601+72.3786+427.153+72.0412C427.705+71.7039+428.334+71.4279+429.039+71.2132C429.745+70.9986+430.511+70.8912+431.339+70.8912C433.087+70.8912+434.498+71.1596+435.571+71.6962C436.645+72.2329+437.48+72.9766+438.078+73.9272C438.676+74.8779+439.083+75.9972+439.297+77.2852C439.512+78.5732+439.619+79.9686+439.619+81.4712L439.619+93.7992L432.719+93.7992L432.719+82.8512C432.719+82.2072+432.696+81.5402+432.65+80.8502C432.604+80.1602+432.466+79.5239+432.236+78.9412C432.006+78.3586+431.654+77.8832+431.178+77.5152C430.703+77.1472+430.021+76.9632+429.131+76.9632C428.242+76.9632+427.521+77.1242+426.969+77.4462C426.417+77.7682+425.996+78.1976+425.704+78.7342C425.413+79.2709+425.221+79.8766+425.129+80.5512C425.037+81.2259+424.991+81.9312+424.991+82.6672L424.991+93.7992L418.091+93.7992L418.091+71.4432Z" fill="#f8f8f8" stroke-linecap="round" opacity="1" stroke-linejoin="round"/>
<path stroke="#070306" stroke-width="1" d="M442.057+99.5492L442.057+97.2492L465.057+97.2492L465.057+99.5492L442.057+99.5492Z" fill="#f8f8f8" stroke-linecap="round" opacity="1" stroke-linejoin="round"/>
<path stroke="#070306" stroke-width="1" d="M474.395+59.0232L474.395+74.4792L474.487+74.4792C474.641+74.0499+474.901+73.6206+475.269+73.1912C475.637+72.7619+476.082+72.3786+476.603+72.0412C477.125+71.7039+477.738+71.4279+478.443+71.2132C479.149+70.9986+479.915+70.8912+480.743+70.8912C482.491+70.8912+483.902+71.1596+484.975+71.6962C486.049+72.2329+486.884+72.9766+487.482+73.9272C488.08+74.8779+488.487+75.9972+488.701+77.2852C488.916+78.5732+489.023+79.9686+489.023+81.4712L489.023+93.7992L482.123+93.7992L482.123+82.8512C482.123+82.2072+482.1+81.5402+482.054+80.8502C482.008+80.1602+481.87+79.5239+481.64+78.9412C481.41+78.3586+481.058+77.8832+480.582+77.5152C480.107+77.1472+479.425+76.9632+478.535+76.9632C477.646+76.9632+476.925+77.1242+476.373+77.4462C475.821+77.7682+475.4+78.1976+475.108+78.7342C474.817+79.2709+474.625+79.8766+474.533+80.5512C474.441+81.2259+474.395+81.9312+474.395+82.6672L474.395+93.7992L467.495+93.7992L467.495+59.0232L474.395+59.0232Z" fill="#f8f8f8" stroke-linecap="round" opacity="1" stroke-linejoin="round"/>
<path stroke="#070306" stroke-width="1" d="M515.427+93.7992L508.803+93.7992L508.803+90.7632L508.711+90.7632C508.466+91.1926+508.152+91.6219+507.768+92.0512C507.385+92.4806+506.917+92.8639+506.365+93.2012C505.813+93.5386+505.185+93.8146+504.479+94.0292C503.774+94.2439+503.007+94.3512+502.179+94.3512C500.431+94.3512+499.013+94.0829+497.924+93.5462C496.836+93.0096+495.992+92.2659+495.394+91.3152C494.796+90.3646+494.398+89.2452+494.198+87.9572C493.999+86.6692+493.899+85.2739+493.899+83.7712L493.899+71.4432L500.799+71.4432L500.799+82.3912C500.799+83.0352+500.822+83.7022+500.868+84.3922C500.914+85.0822+501.052+85.7186+501.282+86.3012C501.512+86.8839+501.865+87.3592+502.34+87.7272C502.816+88.0952+503.498+88.2792+504.387+88.2792C505.277+88.2792+505.997+88.1182+506.549+87.7962C507.101+87.4742+507.523+87.0449+507.814+86.5082C508.106+85.9716+508.297+85.3659+508.389+84.6912C508.481+84.0166+508.527+83.3112+508.527+82.5752L508.527+71.4432L515.427+71.4432L515.427+93.7992Z" fill="#f8f8f8" stroke-linecap="round" opacity="1" stroke-linejoin="round"/>
<path stroke="#070306" stroke-width="1" d="M520.303+71.4432L527.203+71.4432L527.203+75.0312L527.295+75.0312C528.031+73.6512+528.905+72.6162+529.917+71.9262C530.929+71.2362+532.202+70.8912+533.735+70.8912C534.134+70.8912+534.533+70.9066+534.931+70.9372C535.33+70.9679+535.698+71.0292+536.035+71.1212L536.035+77.4232C535.545+77.2699+535.062+77.1549+534.586+77.0782C534.111+77.0016+533.613+76.9632+533.091+76.9632C531.773+76.9632+530.73+77.1472+529.963+77.5152C529.197+77.8832+528.606+78.3969+528.192+79.0562C527.778+79.7156+527.51+80.5052+527.387+81.4252C527.265+82.3452+527.203+83.3572+527.203+84.4612L527.203+93.7992L520.303+93.7992L520.303+71.4432Z" fill="#f8f8f8" stroke-linecap="round" opacity="1" stroke-linejoin="round"/>
<path stroke="#070306" stroke-width="1" d="M554.251+76.9632L548.179+76.9632L548.179+84.4152C548.179+85.0286+548.21+85.5882+548.271+86.0942C548.333+86.6002+548.471+87.0372+548.685+87.4052C548.9+87.7732+549.23+88.0569+549.674+88.2562C550.119+88.4556+550.709+88.5552+551.445+88.5552C551.813+88.5552+552.296+88.5169+552.894+88.4402C553.492+88.3636+553.945+88.1872+554.251+87.9112L554.251+93.6612C553.485+93.9372+552.687+94.1212+551.859+94.2132C551.031+94.3052+550.219+94.3512+549.421+94.3512C548.256+94.3512+547.183+94.2286+546.201+93.9832C545.22+93.7379+544.361+93.3469+543.625+92.8102C542.889+92.2736+542.314+91.5759+541.9+90.7172C541.486+89.8586+541.279+88.8159+541.279+87.5892L541.279+76.9632L536.863+76.9632L536.863+71.4432L541.279+71.4432L541.279+64.8192L548.179+64.8192L548.179+71.4432L554.251+71.4432L554.251+76.9632Z" fill="#f8f8f8" stroke-linecap="round" opacity="1" stroke-linejoin="round"/>
<path stroke="#070306" stroke-width="1" d="M570.397+78.0212C569.385+76.7639+568.051+76.1352+566.395+76.1352C565.813+76.1352+565.245+76.2732+564.693+76.5492C564.141+76.8252+563.865+77.3006+563.865+77.9752C563.865+78.5272+564.149+78.9336+564.716+79.1942C565.284+79.4549+566.004+79.6849+566.878+79.8842C567.752+80.0836+568.688+80.2982+569.684+80.5282C570.681+80.7582+571.616+81.1186+572.49+81.6092C573.364+82.0999+574.085+82.7669+574.652+83.6102C575.22+84.4536+575.503+85.5806+575.503+86.9912C575.503+88.4326+575.189+89.6209+574.56+90.5562C573.932+91.4916+573.127+92.2429+572.145+92.8102C571.164+93.3776+570.06+93.7762+568.833+94.0062C567.607+94.2362+566.395+94.3512+565.199+94.3512C563.635+94.3512+562.056+94.1289+560.461+93.6842C558.867+93.2396+557.517+92.4499+556.413+91.3152L560.599+86.6692C561.243+87.4666+561.956+88.0722+562.738+88.4862C563.52+88.9002+564.433+89.1072+565.475+89.1072C566.273+89.1072+566.993+88.9922+567.637+88.7622C568.281+88.5322+568.603+88.1106+568.603+87.4972C568.603+86.9146+568.32+86.4776+567.752+86.1862C567.185+85.8949+566.464+85.6496+565.59+85.4502C564.716+85.2509+563.781+85.0362+562.784+84.8062C561.788+84.5762+560.852+84.2312+559.978+83.7712C559.104+83.3112+558.384+82.6596+557.816+81.8162C557.249+80.9729+556.965+79.8459+556.965+78.4352C556.965+77.1166+557.234+75.9819+557.77+75.0312C558.307+74.0806+559.012+73.2986+559.886+72.6852C560.76+72.0719+561.765+71.6196+562.899+71.3282C564.034+71.0369+565.184+70.8912+566.349+70.8912C567.821+70.8912+569.309+71.1059+570.811+71.5352C572.314+71.9646+573.587+72.7312+574.629+73.8352L570.397+78.0212Z" fill="#f8f8f8" stroke-linecap="round" opacity="1" stroke-linejoin="round"/>
</g>
</g>
</svg>
