<?xml version="1.0" encoding="UTF-8" standalone="no"?> <!-- Created with Vectornator for iOS (http://vectornator.io/) --><!DOCTYPE svg PUBLIC "-//W3C//DTD SVG 1.1//EN" "http://www.w3.org/Graphics/SVG/1.1/DTD/svg11.dtd">
<svg height="100%" style="fill-rule:evenodd;clip-rule:evenodd;stroke-linecap:round;stroke-linejoin:round;" xmlns:xlink="http://www.w3.org/1999/xlink" xmlns="http://www.w3.org/2000/svg" xml:space="preserve" width="100%" xmlns:vectornator="http://vectornator.io" version="1.1" viewBox="0 0 2000 1000">
<metadata>
<vectornator:setting key="DisplayWhiteBackground" value="0"/>
<vectornator:setting key="RulersVisible" value="1"/>
<vectornator:setting key="Units" value="Pixels"/>
<vectornator:setting key="New" value="1"/>
<vectornator:setting key="DynamicGuides" value="0"/>
<vectornator:setting key="GuidesVisible" value="1"/>
<vectornator:setting key="SnapToPoints" value="0"/>
<vectornator:setting key="SnapToGrid" value="0"/>
<vectornator:setting key="SnapToGuides" value="1"/>
<vectornator:setting key="DimensionsVisible" value="1"/>
<vectornator:setting key="SnapToEdges" value="0"/>
</metadata>
<defs/>
<g id="Layer 1" vectornator:layerName="Layer 1">
<path d="M1148.99+112.203C1112.33+134.159+1070.28+150.808+1023.35+161.738C1062.91+129.739+1085.05+83.3867+1083.83+31.769C1046.58+61.4901+1001.81+85.2019+950.594+100.886C890.654+64.5062+818.07+46.0348+748.661+53.9677C615.455+69.1918+544.275+176.697+589.781+294.08C596.201+310.638+604.657+326.608+614.808+341.792C410.933+355.855+200.227+291.464+31.4523+176.444C22.7064+210.251+25.2136+248.338+40.2946+287.239C68.8736+360.958+136.555+421.088+216.188+451.9C176.239+455.4+135.158+449.791+96.5544+437.858C96.8182+438.539+97.17+439.446+97.5217+440.354C137.488+543.446+253.961+619.792+371.807+626.813C353.538+633.994+333.285+639.151+311.34+641.66C295.774+643.439+279.975+643.586+264.378+642.882C327.668+723.648+440.601+775.053+546.95+764.793C486.343+831.176+395.591+877.198+282.545+890.118C263.023+892.349+243.489+893.516+223.814+893.633C354.038+941.521+494.538+962.298+630.678+946.738C1074.44+896.02+1191.67+544.362+1082.72+263.324C1079.16+254.137+1075.22+244.995+1071.23+236.093C1107+200.855+1133.32+158.763+1148.99+112.203" opacity="1" fill="#03a9f4"/>
<g opacity="1">
<path d="M1009.59+897.776C1006.8+894.407+1003.75+892.255+1000.42+891.319C997.088+890.384+993.823+891.241+990.623+893.89C986.748+897.096+984.928+901.156+985.163+906.071C985.398+910.985+987.328+915.632+990.953+920.012C992.068+921.36+993.31+922.603+994.678+923.742C996.046+924.881+997.481+925.715+998.984+926.245C1000.49+926.775+1002.09+926.907+1003.78+926.639C1005.48+926.372+1007.21+925.507+1008.98+924.043C1011.59+921.882+1013.37+919.624+1014.33+917.268C1015.29+914.913+1015.67+912.58+1015.46+910.269C1015.25+907.959+1014.59+905.741+1013.47+903.617C1012.35+901.492+1011.06+899.545+1009.59+897.776ZM1024.17+891.464C1024.89+892.852+1025.79+894.451+1026.86+896.261C1027.93+898.07+1028.95+899.565+1029.93+900.744C1030.7+901.671+1031.61+902.3+1032.66+902.633C1033.72+902.965+1034.92+902.574+1036.27+901.459C1037.62+900.343+1038.65+898.888+1039.36+897.091C1040.07+895.295+1040.29+893.199+1040.01+890.804C1039.73+888.41+1038.93+885.772+1037.61+882.89C1036.29+880.009+1034.27+876.926+1031.55+873.641C1027.37+868.587+1022.87+864.823+1018.06+862.35C1013.25+859.877+1008.31+858.537+1003.24+858.331C998.172+858.124+993.077+859.041+987.953+861.081C982.83+863.121+977.867+866.128+973.066+870.101C967.844+874.423+963.816+879.246+960.984+884.57C958.152+889.893+956.523+895.428+956.098+901.173C955.672+906.918+956.429+912.677+958.369+918.452C960.309+924.226+963.405+929.682+967.657+934.82C972.258+940.379+977.297+944.582+982.774+947.429C988.252+950.276+993.909+951.838+999.746+952.117C1005.58+952.396+1011.45+951.475+1017.36+949.354C1023.27+947.232+1028.88+943.976+1034.18+939.584C1038.99+935.611+1042.83+931.295+1045.71+926.636C1048.6+921.978+1050.59+917.138+1051.69+912.116L1065.58+900.614C1066.19+910.612+1064.45+920.037+1060.35+928.892C1056.26+937.746+1050.33+945.379+1042.58+951.792C1035.84+957.368+1028.55+961.455+1020.69+964.053C1012.84+966.651+1004.97+967.733+997.09+967.3C989.21+966.867+981.598+964.829+974.254+961.185C966.911+957.541+960.416+952.308+954.77+945.485C949.193+938.746+945.299+931.468+943.086+923.649C940.873+915.83+940.214+908.002+941.108+900.166C942.003+892.33+944.384+884.789+948.252+877.544C952.12+870.299+957.38+863.923+964.035+858.416C969.594+853.816+975.798+850.208+982.645+847.593C989.492+844.977+996.486+843.696+1003.62+843.749C1010.76+843.801+1017.76+845.355+1024.62+848.409C1031.47+851.463+1037.65+856.317+1043.16+862.972C1046.86+867.436+1049.54+871.746+1051.2+875.903C1052.87+880.059+1053.82+883.954+1054.06+887.588C1054.3+891.221+1053.98+894.608+1053.1+897.747C1052.22+900.887+1051.06+903.69+1049.63+906.156C1048.19+908.622+1046.65+910.786+1045+912.649C1043.34+914.512+1041.89+915.967+1040.62+917.012C1037.09+919.94+1033.97+921.315+1031.27+921.138C1028.56+920.961+1026.47+920.064+1025+918.45L1024.74+918.659C1024.45+921.737+1023.64+925.038+1022.29+928.561C1020.95+932.084+1018.26+935.519+1014.22+938.865C1011.52+941.095+1008.62+942.608+1005.52+943.402C1002.42+944.196+999.297+944.329+996.163+943.8C993.029+943.272+989.939+942.068+986.894+940.188C983.849+938.309+981.036+935.811+978.457+932.694C975.39+928.988+973.035+924.941+971.391+920.554C969.747+916.167+968.902+911.758+968.854+907.327C968.806+902.896+969.696+898.612+971.523+894.475C973.35+890.338+976.243+886.631+980.202+883.355C983.571+880.567+986.825+878.796+989.963+878.044C993.101+877.292+996.383+877.699+999.807+879.264L1000.06+879.055L996.366+872.533L1008.24+862.705L1024.17+891.464Z" opacity="1" fill="#f8f8f8"/>
<path d="M1102.58+828.277C1100.54+827.696+1098.31+827.66+1095.89+828.17C1093.48+828.68+1091.3+829.736+1089.36+831.339C1084.56+835.312+1082.02+839.829+1081.73+844.888C1081.45+849.948+1083.23+854.794+1087.06+859.427C1090.89+864.06+1095.32+866.71+1100.35+867.378C1105.37+868.046+1110.28+866.394+1115.08+862.421C1117.19+860.678+1118.62+858.716+1119.36+856.535C1120.11+854.354+1120.51+852.178+1120.56+850.009L1143.95+852.798C1143.51+858.27+1141.79+863.272+1138.8+867.804C1135.81+872.337+1132.51+876.102+1128.88+879.099C1124.17+883.002+1119.1+885.921+1113.67+887.855C1108.25+889.789+1102.83+890.618+1097.42+890.34C1092.01+890.063+1086.78+888.676+1081.74+886.181C1076.69+883.686+1072.15+879.996+1068.11+875.11C1064.06+870.225+1061.29+865.071+1059.78+859.648C1058.28+854.225+1057.89+848.831+1058.63+843.465C1059.37+838.099+1061.2+832.933+1064.11+827.966C1067.03+823+1070.84+818.565+1075.56+814.661C1079.18+811.664+1083.5+809.12+1088.51+807.031C1093.52+804.941+1098.76+804.193+1104.21+804.786L1102.58+828.277Z" opacity="1" fill="#f8f8f8"/>
<path d="M1188.47+814.251L1188.22+814.46C1188.83+819.488+1187.98+824.164+1185.67+828.489C1183.36+832.813+1180.27+836.579+1176.39+839.785C1173.53+842.155+1170.44+844.038+1167.12+845.434C1163.81+846.829+1160.48+847.563+1157.13+847.636C1153.78+847.708+1150.54+847.053+1147.41+845.67C1144.28+844.288+1141.43+842.038+1138.85+838.922C1135.92+835.384+1134.1+831.853+1133.38+828.33C1132.67+824.807+1132.76+821.322+1133.67+817.874C1134.58+814.426+1136.1+811.076+1138.23+807.821C1140.36+804.567+1142.79+801.457+1145.52+798.491C1148.24+795.526+1151.11+792.729+1154.11+790.101C1157.12+787.472+1159.93+785.078+1162.54+782.917C1159.75+779.547+1156.34+777.866+1152.3+777.874C1148.26+777.881+1144.6+779.243+1141.31+781.962C1138.2+784.541+1135.89+787.546+1134.4+790.978C1132.92+794.41+1132.1+798.099+1131.96+802.046L1113.28+800.05C1114.1+793.837+1116.19+787.958+1119.55+782.412C1122.9+776.866+1127.11+772.002+1132.16+767.82C1137.72+763.219+1142.87+760.133+1147.6+758.56C1152.33+756.987+1156.88+756.66+1161.26+757.578C1165.64+758.496+1169.87+760.565+1173.95+763.785C1178.04+767.004+1182.2+771.183+1186.46+776.322L1212.28+807.53L1194.85+821.958L1188.47+814.251ZM1167.9+798.915C1166.47+800.1+1164.73+801.644+1162.69+803.548C1160.64+805.452+1158.88+807.518+1157.39+809.745C1155.89+811.973+1154.94+814.251+1154.53+816.581C1154.11+818.91+1154.78+821.128+1156.52+823.234C1158.4+825.508+1160.76+826.391+1163.61+825.883C1166.45+825.375+1168.93+824.249+1171.03+822.507C1172.89+820.973+1174.47+819.239+1175.77+817.305C1177.08+815.37+1178.03+813.382+1178.61+811.341C1179.19+809.299+1179.29+807.231+1178.9+805.137C1178.52+803.042+1177.52+801.027+1175.92+799.089L1172.58+795.046L1167.9+798.915Z" opacity="1" fill="#f8f8f8"/>
<path d="M1175.11+734.832L1192.55+720.403L1199.24+728.49L1199.49+728.28C1199.35+726.558+1199.41+724.623+1199.69+722.475C1199.97+720.327+1200.55+718.11+1201.43+715.825C1202.3+713.539+1203.46+711.3+1204.91+709.107C1206.36+706.914+1208.18+704.911+1210.37+703.099C1214.92+699.335+1219.69+696.699+1224.69+695.19C1229.69+693.681+1234.68+693.24+1239.67+693.866C1244.65+694.492+1249.47+696.15+1254.11+698.84C1258.74+701.529+1262.98+705.191+1266.81+709.823C1270.37+714.119+1273.11+718.766+1275.05+723.763C1276.99+728.76+1278.01+733.768+1278.12+738.787C1278.23+743.806+1277.3+748.65+1275.35+753.319C1273.39+757.988+1270.22+762.134+1265.84+765.759C1261.89+769.035+1257.7+771.474+1253.27+773.076C1248.85+774.677+1244.33+774.91+1239.7+773.775L1239.44+773.984L1268.72+809.361L1249.77+825.045L1175.11+734.832ZM1217.96+751.106C1221.79+755.739+1226.22+758.389+1231.24+759.057C1236.27+759.726+1241.18+758.073+1245.98+754.1C1250.78+750.127+1253.32+745.61+1253.61+740.551C1253.89+735.491+1252.11+730.645+1248.28+726.012C1244.45+721.379+1240.02+718.729+1234.99+718.061C1229.97+717.393+1225.06+719.045+1220.26+723.018C1215.46+726.991+1212.91+731.508+1212.63+736.567C1212.35+741.627+1214.12+746.473+1217.96+751.106Z" opacity="1" fill="#f8f8f8"/>
<path d="M1302.64+659.74C1297+658.586+1291.91+659.892+1287.36+663.656C1285.76+664.98+1284.52+666.649+1283.63+668.662C1282.74+670.674+1283.06+672.607+1284.59+674.46C1285.85+675.977+1287.55+676.448+1289.7+675.874C1291.85+675.301+1294.36+674.295+1297.21+672.855C1300.06+671.416+1303.12+669.88+1306.38+668.246C1309.64+666.613+1313.03+665.476+1316.55+664.838C1320.06+664.199+1323.56+664.393+1327.03+665.42C1330.51+666.446+1333.85+668.897+1337.05+672.772C1340.33+676.731+1342.17+680.709+1342.57+684.707C1342.97+688.705+1342.46+692.599+1341.06+696.388C1339.65+700.176+1337.53+703.781+1334.68+707.201C1331.83+710.621+1328.77+713.69+1325.48+716.408C1321.19+719.963+1316.34+722.942+1310.95+725.346C1305.56+727.749+1300.06+728.647+1294.45+728.04L1295.39+705.764C1298.97+706.49+1302.3+706.533+1305.39+705.893C1308.48+705.252+1311.46+703.747+1314.32+701.377C1316.51+699.565+1318.23+697.611+1319.47+695.515C1320.72+693.42+1320.65+691.53+1319.25+689.845C1317.93+688.245+1316.16+687.689+1313.93+688.179C1311.71+688.668+1309.18+689.632+1306.32+691.071C1303.47+692.51+1300.41+694.047+1297.15+695.68C1293.89+697.314+1290.54+698.492+1287.09+699.215C1283.65+699.939+1280.19+699.787+1276.71+698.76C1273.24+697.733+1269.89+695.282+1266.69+691.408C1263.69+687.786+1261.85+684.059+1261.16+680.228C1260.48+676.397+1260.64+672.646+1261.64+668.975C1262.65+665.303+1264.38+661.778+1266.83+658.399C1269.29+655.02+1272.12+652.006+1275.32+649.357C1279.36+646.011+1283.93+643.22+1289.04+640.984C1294.14+638.747+1299.38+637.96+1304.75+638.623L1302.64+659.74Z" opacity="1" fill="#f8f8f8"/>
<path d="M1394.42+643.823L1394.16+644.033C1394.78+649.06+1393.93+653.736+1391.62+658.061C1389.31+662.386+1386.21+666.151+1382.34+669.358C1379.47+671.728+1376.38+673.61+1373.07+675.006C1369.75+676.401+1366.42+677.135+1363.08+677.208C1359.73+677.28+1356.49+676.625+1353.36+675.243C1350.23+673.86+1347.38+671.61+1344.8+668.494C1341.87+664.956+1340.05+661.426+1339.33+657.902C1338.62+654.379+1338.71+650.894+1339.62+647.446C1340.53+643.999+1342.05+640.648+1344.18+637.393C1346.31+634.139+1348.74+631.029+1351.47+628.064C1354.19+625.098+1357.06+622.301+1360.06+619.673C1363.07+617.045+1365.87+614.65+1368.49+612.489C1365.7+609.12+1362.28+607.439+1358.25+607.446C1354.21+607.453+1350.54+608.816+1347.26+611.534C1344.14+614.113+1341.84+617.119+1340.35+620.55C1338.86+623.982+1338.05+627.671+1337.91+631.618L1319.23+629.622C1320.05+623.41+1322.14+617.53+1325.49+611.984C1328.85+606.438+1333.06+601.574+1338.11+597.392C1343.67+592.792+1348.81+589.705+1353.54+588.132C1358.27+586.56+1362.83+586.232+1367.21+587.15C1371.59+588.068+1375.82+590.137+1379.9+593.357C1383.98+596.577+1388.15+600.756+1392.4+605.894L1418.23+637.102L1400.79+651.531L1394.42+643.823ZM1373.85+628.487C1372.42+629.672+1370.68+631.216+1368.64+633.12C1366.59+635.024+1364.82+637.09+1363.33+639.318C1361.84+641.545+1360.89+643.824+1360.47+646.153C1360.06+648.482+1360.72+650.7+1362.47+652.806C1364.35+655.08+1366.71+655.963+1369.56+655.455C1372.4+654.947+1374.87+653.821+1376.98+652.079C1378.83+650.545+1380.41+648.811+1381.72+646.877C1383.03+644.943+1383.98+642.955+1384.56+640.913C1385.14+638.871+1385.24+636.803+1384.85+634.709C1384.47+632.615+1383.47+630.599+1381.87+628.662L1378.52+624.618L1373.85+628.487Z" opacity="1" fill="#f8f8f8"/>
<path d="M1379.54+565.659L1398.5+549.976L1449.31+611.381L1430.36+627.064L1379.54+565.659ZM1362.03+547.583C1359.52+544.55+1358.45+541.071+1358.82+537.146C1359.19+533.221+1360.89+530.003+1363.93+527.494C1366.96+524.984+1370.44+523.915+1374.36+524.285C1378.29+524.656+1381.51+526.357+1384.02+529.39C1386.52+532.422+1387.59+535.901+1387.22+539.826C1386.85+543.752+1385.15+546.969+1382.12+549.478C1379.09+551.988+1375.61+553.057+1371.68+552.687C1367.76+552.316+1364.54+550.615+1362.03+547.583Z" opacity="1" fill="#f8f8f8"/>
<path d="M1470.13+524.121C1468.08+523.54+1465.86+523.504+1463.44+524.014C1461.02+524.524+1458.85+525.58+1456.91+527.183C1452.11+531.156+1449.56+535.673+1449.28+540.732C1449+545.792+1450.77+550.638+1454.61+555.271C1458.44+559.904+1462.87+562.554+1467.89+563.222C1472.92+563.891+1477.83+562.238+1482.63+558.265C1484.73+556.522+1486.16+554.56+1486.91+552.379C1487.66+550.198+1488.06+548.022+1488.11+545.853L1511.49+548.642C1511.05+554.114+1509.34+559.116+1506.35+563.648C1503.36+568.181+1500.05+571.946+1496.43+574.943C1491.71+578.846+1486.64+581.765+1481.22+583.699C1475.79+585.634+1470.38+586.462+1464.97+586.184C1459.56+585.907+1454.33+584.52+1449.29+582.025C1444.24+579.53+1439.7+575.84+1435.65+570.954C1431.61+566.069+1428.84+560.915+1427.33+555.492C1425.82+550.069+1425.44+544.675+1426.18+539.309C1426.92+533.943+1428.74+528.777+1431.66+523.81C1434.57+518.844+1438.39+514.409+1443.11+510.505C1446.73+507.508+1451.05+504.965+1456.06+502.875C1461.07+500.785+1466.3+500.037+1471.76+500.63L1470.13+524.121Z" opacity="1" fill="#f8f8f8"/>
<path d="M1473.29+488.078L1492.25+472.394L1543.06+533.8L1524.11+549.483L1473.29+488.078ZM1455.78+470.001C1453.27+466.969+1452.2+463.49+1452.57+459.565C1452.94+455.639+1454.64+452.422+1457.68+449.913C1460.71+447.403+1464.19+446.334+1468.11+446.704C1472.04+447.075+1475.26+448.776+1477.77+451.808C1480.28+454.841+1481.34+458.32+1480.97+462.245C1480.6+466.17+1478.9+469.388+1475.87+471.897C1472.84+474.407+1469.36+475.476+1465.43+475.106C1461.51+474.735+1458.29+473.034+1455.78+470.001Z" opacity="1" fill="#f8f8f8"/>
<path d="M1505.89+461.102L1524.09+446.046L1530.99+454.385L1531.24+454.176C1530.85+452.509+1530.72+450.632+1530.84+448.547C1530.96+446.462+1531.39+444.328+1532.14+442.147C1532.89+439.966+1533.99+437.779+1535.44+435.586C1536.89+433.393+1538.75+431.356+1541.03+429.474C1545.83+425.501+1550.31+423.031+1554.48+422.066C1558.65+421.1+1562.63+421.243+1566.44+422.495C1570.24+423.747+1573.9+425.898+1577.42+428.948C1580.93+431.998+1584.4+435.586+1587.82+439.714L1615.84+473.575L1596.89+489.258L1572+459.187C1570.54+457.419+1568.96+455.639+1567.26+453.848C1565.57+452.058+1563.74+450.623+1561.79+449.546C1559.83+448.468+1557.78+447.964+1555.64+448.034C1553.5+448.103+1551.21+449.149+1548.76+451.17C1546.32+453.192+1544.71+455.272+1543.92+457.411C1543.14+459.55+1542.96+461.688+1543.38+463.824C1543.79+465.961+1544.65+468.06+1545.93+470.122C1547.21+472.184+1548.68+474.226+1550.36+476.248L1575.66+506.824L1556.71+522.507L1505.89+461.102Z" opacity="1" fill="#f8f8f8"/>
<path d="M1635.6+483.827L1630.38+477.509L1693.55+425.231L1698.78+431.548L1635.6+483.827Z" opacity="1" fill="#f8f8f8"/>
<path d="M1632.31+299.011L1667.44+341.464L1667.7+341.254C1667.14+339.727+1666.88+337.955+1666.92+335.939C1666.95+333.924+1667.3+331.86+1667.97+329.748C1668.63+327.637+1669.69+325.485+1671.14+323.292C1672.59+321.099+1674.45+319.062+1676.72+317.18C1681.53+313.206+1686.01+310.737+1690.18+309.771C1694.35+308.806+1698.33+308.949+1702.13+310.201C1705.94+311.453+1709.6+313.604+1713.12+316.654C1716.63+319.703+1720.1+323.292+1723.51+327.419L1751.54+361.281L1732.58+376.964L1707.7+346.893C1706.24+345.125+1704.66+343.345+1702.96+341.554C1701.27+339.763+1699.44+338.329+1697.49+337.252C1695.53+336.174+1693.48+335.67+1691.34+335.74C1689.2+335.809+1686.9+336.855+1684.46+338.876C1682.02+340.898+1680.4+342.978+1679.62+345.117C1678.84+347.256+1678.65+349.394+1679.07+351.53C1679.49+353.666+1680.34+355.766+1681.62+357.828C1682.9+359.89+1684.38+361.932+1686.05+363.954L1711.36+394.53L1692.41+410.213L1613.36+314.694L1632.31+299.011Z" opacity="1" fill="#f8f8f8"/>
<path d="M1824.06+301.265L1805.87+316.321L1798.96+307.982L1798.71+308.191C1799.01+309.928+1799.13+311.822+1799.05+313.873C1798.97+315.923+1798.56+318.039+1797.81+320.22C1797.06+322.401+1795.96+324.589+1794.51+326.781C1793.06+328.974+1791.2+331.012+1788.93+332.894C1784.12+336.867+1779.62+339.354+1775.41+340.354C1771.2+341.354+1767.19+341.229+1763.39+339.977C1759.59+338.725+1755.95+336.557+1752.47+333.472C1749+330.387+1745.55+326.781+1742.14+322.654L1714.11+288.792L1733.07+273.109L1757.95+303.18C1759.41+304.949+1760.99+306.728+1762.69+308.519C1764.38+310.31+1766.21+311.744+1768.16+312.822C1770.12+313.899+1772.17+314.403+1774.31+314.334C1776.45+314.264+1778.75+313.218+1781.19+311.197C1783.63+309.176+1785.25+307.095+1786.03+304.956C1786.81+302.817+1787+300.679+1786.58+298.543C1786.16+296.407+1785.31+294.308+1784.03+292.245C1782.75+290.183+1781.27+288.141+1779.6+286.12L1754.29+255.543L1773.25+239.86L1824.06+301.265Z" opacity="1" fill="#f8f8f8"/>
<path d="M1786.64+228.777L1805.59+213.093L1813.75+222.948L1814+222.739C1812.88+217.276+1812.93+212.447+1814.14+208.251C1815.35+204.056+1818.07+200.215+1822.28+196.73C1823.37+195.824+1824.5+194.96+1825.67+194.138C1826.83+193.316+1827.98+192.648+1829.12+192.134L1843.44+209.444C1841.75+210.138+1840.16+210.92+1838.68+211.79C1837.2+212.659+1835.74+213.687+1834.31+214.872C1830.69+217.869+1828.24+220.744+1826.97+223.498C1825.7+226.251+1825.25+229.004+1825.61+231.756C1825.97+234.508+1827.03+237.287+1828.78+240.093C1830.54+242.898+1832.67+245.817+1835.18+248.85L1856.4+274.499L1837.45+290.182L1786.64+228.777Z" opacity="1" fill="#f8f8f8"/>
<path d="M1892.43+166.776L1875.75+180.577L1892.69+201.046C1894.08+202.73+1895.44+204.198+1896.76+205.448C1898.08+206.699+1899.45+207.585+1900.88+208.108C1902.3+208.631+1903.85+208.661+1905.53+208.198C1907.2+207.734+1909.05+206.666+1911.07+204.993C1912.08+204.157+1913.32+202.954+1914.79+201.384C1916.26+199.814+1917.1+198.302+1917.31+196.846L1930.38+212.64C1928.91+215.141+1927.13+217.458+1925.07+219.593C1923+221.728+1920.88+223.701+1918.69+225.514C1915.48+228.162+1912.26+230.265+1909+231.822C1905.75+233.379+1902.5+234.256+1899.26+234.455C1896.02+234.654+1892.86+234.045+1889.77+232.627C1886.68+231.21+1883.74+228.816+1880.95+225.447L1856.8+196.261L1844.67+206.298L1832.12+191.136L1844.25+181.099L1829.2+162.905L1848.15+147.221L1863.21+165.415L1879.88+151.614L1892.43+166.776Z" opacity="1" fill="#f8f8f8"/>
<path d="M1939.18+132.982C1933.55+131.829+1928.45+133.134+1923.9+136.898C1922.3+138.223+1921.06+139.891+1920.17+141.904C1919.28+143.917+1919.6+145.85+1921.14+147.703C1922.39+149.219+1924.09+149.69+1926.25+149.117C1928.4+148.543+1930.9+147.537+1933.75+146.098C1936.61+144.659+1939.66+143.122+1942.92+141.489C1946.18+139.855+1949.57+138.719+1953.09+138.08C1956.6+137.441+1960.1+137.635+1963.57+138.662C1967.05+139.689+1970.39+142.14+1973.6+146.014C1976.87+149.973+1978.71+153.952+1979.11+157.95C1979.51+161.948+1979.01+165.841+1977.6+169.63C1976.19+173.419+1974.07+177.023+1971.22+180.443C1968.37+183.863+1965.31+186.932+1962.02+189.651C1957.73+193.206+1952.88+196.185+1947.49+198.588C1942.1+200.991+1936.6+201.889+1930.99+201.282L1931.93+179.006C1935.51+179.732+1938.84+179.775+1941.93+179.135C1945.02+178.495+1948+176.99+1950.86+174.62C1953.05+172.807+1954.77+170.853+1956.02+168.758C1957.26+166.662+1957.19+164.772+1955.79+163.088C1954.47+161.487+1952.7+160.932+1950.48+161.421C1948.26+161.91+1945.72+162.875+1942.87+164.314C1940.01+165.753+1936.95+167.289+1933.69+168.923C1930.43+170.556+1927.08+171.735+1923.63+172.458C1920.19+173.181+1916.73+173.029+1913.25+172.002C1909.78+170.975+1906.44+168.525+1903.23+164.65C1900.23+161.028+1898.39+157.301+1897.7+153.47C1897.02+149.639+1897.18+145.888+1898.18+142.217C1899.19+138.546+1900.92+135.021+1903.38+131.641C1905.83+128.262+1908.66+125.248+1911.86+122.599C1915.9+119.253+1920.47+116.462+1925.58+114.226C1930.68+111.99+1935.92+111.203+1941.29+111.865L1939.18+132.982Z" opacity="1" fill="#f8f8f8"/>
</g>
</g>
</svg>
